<?xml version="1.0" encoding="utf-8"?>
<!-- Generator: Adobe Illustrator 19.2.1, SVG Export Plug-In . SVG Version: 6.00 Build 0)  -->
<svg version="1.1" id="Layer_1" xmlns="http://www.w3.org/2000/svg" xmlns:xlink="http://www.w3.org/1999/xlink" x="0px" y="0px"
	 viewBox="0 0 116.6 114" style="enable-background:new 0 0 116.6 114;" xml:space="preserve">
<style type="text/css">
	.st0{fill:#32A49B;}
</style>
<g>
	<path class="st0" d="M63.9,68.9h-8.1C45.4,68.9,37,77.1,37,87.3c0,1.3,1.1,2.4,2.4,2.4c1.3,0,2.4-1.1,2.4-2.5
		c0-7.6,6.1-13.7,13.9-13.7h8.1c7.6,0,13.9,6.2,13.9,13.8c0,1.3,1.1,2.4,2.4,2.4s2.4-1,2.4-2.4C82.5,77.1,74.2,68.9,63.9,68.9z"/>
	<path class="st0" d="M57.9,7.6c-7.4,0-14.5,1.5-21.1,4.6c-1.1-1.3-2-2.3-2.3-2.5C34,9.2,33.3,9,32.7,9C32,9,31.4,9.3,31,9.7
		c-0.3,0.3-5.4,5.7-8,11.8c-0.1,0.1-0.2,0.2-0.3,0.3C12.6,31.5,7,44.5,7,58.5c0,28,22.8,50.9,50.9,50.9c28,0,50.9-22.8,50.9-50.9
		C108.7,30.4,85.9,7.6,57.9,7.6z M32.8,15c2.6,3,6.3,8,6.8,11.9c0.3,2.4,0,4.2-1,5.3c-1,1.2-3,1.7-5.8,1.7c-2.7,0-4.6-0.5-5.5-1.6
		c-0.9-1-1.2-2.8-0.8-5.4C27,22.6,30.6,17.7,32.8,15z M57.9,104.5c-25.4,0-46-20.7-46-46c0-10.4,3.4-20.2,9.6-28.2
		c0.2,2.1,0.9,3.8,2.1,5.1c1.9,2.2,4.9,3.3,9.1,3.3c4.3,0,7.4-1.1,9.4-3.4c1.9-2.1,2.6-5.2,2.2-9.1c-0.4-3.5-2.4-7.1-4.5-10.2
		c5.7-2.5,11.8-3.7,18.1-3.7c25.4,0,46,20.7,46,46S83.3,104.5,57.9,104.5z"/>
	<path class="st0" d="M78.5,58.1c1.3,0,2.4-1.1,2.4-2.4s-1.1-2.4-2.4-2.4c-3.2,0-5.8-2.8-5.8-6.1c0-1.3-1.1-2.4-2.4-2.4
		s-2.4,1.1-2.4,2.4C67.8,53.1,72.7,58.1,78.5,58.1z"/>
	<path class="st0" d="M47.7,47.3c0-1.3-1.1-2.4-2.4-2.4s-2.4,1.1-2.4,2.4c0,3.2-2.8,5.8-6.1,5.8c-1.3,0-2.4,1.1-2.4,2.4
		s1.1,2.4,2.4,2.4C42.7,57.9,47.7,53.1,47.7,47.3z"/>
</g>
</svg>
