<?xml version="1.0" encoding="utf-8"?>
<!-- Generator: Adobe Illustrator 19.2.1, SVG Export Plug-In . SVG Version: 6.00 Build 0)  -->
<svg version="1.1" id="Layer_1" xmlns="http://www.w3.org/2000/svg" xmlns:xlink="http://www.w3.org/1999/xlink" x="0px" y="0px"
	 viewBox="0 0 408.6 108.1" style="enable-background:new 0 0 408.6 108.1;" xml:space="preserve">
<style type="text/css">
	.st0{fill:#FFFFFF;}
	.st1{fill:#32A49B;}
</style>
<g>
	<path class="st0" d="M128.2,73.1c0-1.6-0.5-3-1.4-4c-1-1-2.2-1.9-3.6-2.7c-1.4-0.8-3-1.5-4.7-2.2c-1.7-0.7-3.2-1.5-4.7-2.5
		c-1.4-1-2.6-2.2-3.6-3.7c-1-1.5-1.4-3.3-1.4-5.5c0-3.2,1.1-5.7,3.3-7.6c2.2-1.9,5.3-2.8,9.3-2.8c2.3,0,4.5,0.2,6.4,0.5
		c1.9,0.3,3.4,0.8,4.5,1.3l-1.4,4.3c-0.9-0.4-2.2-0.9-3.9-1.3c-1.7-0.4-3.6-0.6-5.8-0.6c-2.5,0-4.4,0.6-5.7,1.7
		c-1.3,1.1-1.9,2.5-1.9,4c0,1.5,0.5,2.8,1.4,3.8c1,1,2.2,1.9,3.6,2.7c1.4,0.8,3,1.6,4.7,2.4c1.7,0.8,3.2,1.7,4.7,2.7
		c1.4,1,2.6,2.3,3.6,3.7c1,1.4,1.4,3.2,1.4,5.3c0,1.7-0.3,3.3-0.9,4.7c-0.6,1.4-1.5,2.6-2.7,3.6c-1.2,1-2.6,1.8-4.3,2.3
		c-1.7,0.5-3.6,0.8-5.7,0.8c-2.9,0-5.3-0.2-7.1-0.7c-1.9-0.4-3.3-0.9-4.4-1.5l1.6-4.3c0.9,0.5,2.2,1,3.9,1.4
		c1.7,0.5,3.7,0.7,5.8,0.7c1.3,0,2.5-0.1,3.6-0.4c1.1-0.3,2.1-0.7,2.9-1.2c0.8-0.6,1.4-1.3,1.9-2.1C128,75.2,128.2,74.2,128.2,73.1z
		"/>
	<path class="st0" d="M161.1,81.1c-1.1,0.9-2.6,1.7-4.3,2.2c-1.7,0.5-3.6,0.8-5.5,0.8c-2.2,0-4.1-0.4-5.7-1.1
		c-1.6-0.7-2.9-1.7-4-3.1c-1-1.3-1.8-2.9-2.3-4.8c-0.5-1.9-0.7-3.9-0.7-6.3c0-5,1.1-8.7,3.3-11.3c2.2-2.6,5.3-3.9,9.4-3.9
		c1.3,0,2.6,0.1,3.9,0.4c1.3,0.3,2.5,0.8,3.5,1.7s1.9,2,2.5,3.5c0.7,1.5,1,3.5,1,5.9c0,1.3-0.1,2.7-0.3,4.2h-18.5
		c0,1.7,0.2,3.2,0.5,4.5c0.3,1.3,0.9,2.4,1.6,3.3c0.7,0.9,1.7,1.6,2.8,2.1c1.2,0.5,2.6,0.7,4.3,0.7c1.3,0,2.6-0.2,3.9-0.7
		c1.3-0.5,2.3-1,2.9-1.6L161.1,81.1z M151.2,57.7c-2.3,0-4.1,0.6-5.4,1.8c-1.4,1.2-2.2,3.3-2.4,6.2h14.3c0-2.9-0.6-5-1.7-6.2
		C154.8,58.3,153.3,57.7,151.2,57.7z"/>
	<path class="st0" d="M168.9,56.5c1.5-0.9,3.2-1.5,5.1-2c1.9-0.4,4-0.6,6.1-0.6c2,0,3.6,0.3,4.8,0.8c1.2,0.5,2.1,1.2,2.8,2.1
		c0.6,0.9,1.1,1.8,1.3,2.9c0.2,1,0.3,2.1,0.3,3.1c0,2.3-0.1,4.6-0.2,6.8c-0.1,2.2-0.2,4.3-0.2,6.3c0,1.4,0.1,2.8,0.2,4.1
		c0.1,1.3,0.3,2.5,0.6,3.5h-3.4l-1.2-4.1h-0.3c-0.3,0.5-0.8,1.1-1.3,1.6c-0.5,0.5-1.1,1-1.9,1.4c-0.7,0.4-1.6,0.7-2.5,1
		c-1,0.3-2.1,0.4-3.3,0.4c-1.2,0-2.4-0.2-3.4-0.6c-1.1-0.4-2-0.9-2.7-1.7c-0.8-0.7-1.4-1.6-1.8-2.6c-0.4-1-0.7-2.1-0.7-3.4
		c0-1.7,0.3-3.1,1-4.3c0.7-1.1,1.7-2.1,2.9-2.7c1.2-0.7,2.7-1.2,4.5-1.5c1.7-0.3,3.7-0.4,5.8-0.4c0.5,0,1.1,0,1.6,0
		c0.5,0,1,0,1.6,0.1c0.1-1.2,0.2-2.2,0.2-3.1c0-2.1-0.4-3.6-1.3-4.5c-0.8-0.9-2.4-1.3-4.6-1.3c-0.7,0-1.4,0-2.1,0.1
		c-0.7,0.1-1.5,0.2-2.3,0.4c-0.8,0.2-1.5,0.4-2.2,0.7c-0.7,0.3-1.3,0.5-1.9,0.9L168.9,56.5z M177,79.8c1.1,0,2-0.1,2.9-0.4
		c0.8-0.3,1.6-0.7,2.2-1.1c0.6-0.4,1.1-0.9,1.5-1.5c0.4-0.5,0.7-1.1,0.9-1.6v-4.8c-0.5,0-1.1-0.1-1.6-0.1c-0.6,0-1.1,0-1.6,0
		c-1.2,0-2.3,0.1-3.5,0.2c-1.1,0.1-2.1,0.4-3,0.8c-0.9,0.4-1.6,0.9-2.1,1.5c-0.5,0.6-0.8,1.4-0.8,2.4c0,1.4,0.5,2.5,1.4,3.3
		C174.3,79.4,175.6,79.8,177,79.8z"/>
	<path class="st0" d="M194.1,54.4h4.5v-5.8l4.6-1.3v7.1h7.8v4.1h-7.8v16.1c0,2,0.2,3.4,0.7,4.3c0.5,0.8,1.3,1.2,2.5,1.2
		c1,0,1.8-0.1,2.5-0.3c0.7-0.2,1.5-0.5,2.3-0.8l1,3.5c-1,0.5-2.2,0.9-3.4,1.2c-1.2,0.3-2.5,0.5-4,0.5c-2.3,0-4-0.7-4.9-2
		c-1-1.3-1.4-3.6-1.4-6.7v-17h-4.5V54.4z"/>
	<path class="st0" d="M240.5,83.4c0,4.2-1.1,7.3-3.4,9.3c-2.3,2-5.4,3-9.5,3c-2.8,0-4.9-0.2-6.5-0.6c-1.6-0.4-2.8-0.8-3.6-1.2l1.6-6
		c0.9,0.3,1.9,0.7,3.1,1c1.2,0.3,2.6,0.5,4.3,0.5c2.6,0,4.4-0.6,5.3-1.7c0.9-1.1,1.4-2.7,1.4-4.8v-1.9H233c-1.3,1.8-3.7,2.7-7.1,2.7
		c-3.7,0-6.5-1.2-8.3-3.5c-1.8-2.3-2.7-6-2.7-10.9c0-5.2,1.2-9.1,3.7-11.8c2.5-2.7,6-4,10.7-4c2.5,0,4.6,0.2,6.6,0.5
		c1.9,0.3,3.5,0.8,4.7,1.2V83.4z M227.9,77.8c1.5,0,2.6-0.3,3.4-1c0.8-0.7,1.4-1.6,1.8-3V60.8c-1.2-0.5-2.7-0.8-4.4-0.8
		c-1.9,0-3.4,0.7-4.5,2.2c-1.1,1.5-1.6,3.8-1.6,6.9c0,2.8,0.5,5,1.4,6.4C224.8,77.1,226.2,77.8,227.9,77.8z"/>
	<path class="st0" d="M245.7,68.9c0-4.9,1.2-8.7,3.6-11.4c2.4-2.7,5.7-4,10-4c2.3,0,4.3,0.4,6,1.1c1.7,0.7,3.1,1.8,4.2,3.1
		c1.1,1.3,1.9,3,2.5,4.8c0.6,1.9,0.8,4,0.8,6.3c0,4.9-1.2,8.7-3.5,11.4c-2.4,2.7-5.7,4-10,4c-2.3,0-4.3-0.4-6-1.1
		c-1.7-0.7-3.1-1.8-4.2-3.1c-1.1-1.3-2-3-2.5-4.8C245.9,73.3,245.7,71.2,245.7,68.9z M253.4,68.9c0,1.3,0.1,2.5,0.3,3.5
		c0.2,1.1,0.6,2,1,2.8c0.5,0.8,1.1,1.4,1.8,1.9c0.7,0.4,1.6,0.7,2.7,0.7c2,0,3.4-0.7,4.4-2.1c1-1.4,1.4-3.7,1.4-6.8
		c0-2.7-0.4-4.8-1.3-6.5c-0.9-1.6-2.4-2.5-4.5-2.5c-1.8,0-3.3,0.7-4.3,2.1C253.9,63.4,253.4,65.7,253.4,68.9z"/>
	<path class="st0" d="M285.6,73.6c0,1.4,0.2,2.3,0.5,3c0.3,0.6,0.9,0.9,1.7,0.9c0.5,0,0.9,0,1.4-0.1c0.4-0.1,1-0.3,1.6-0.5l0.8,5.9
		c-0.6,0.3-1.6,0.6-2.8,0.9c-1.3,0.3-2.6,0.5-3.9,0.5c-2.2,0-3.9-0.5-5-1.5c-1.2-1-1.7-2.7-1.7-5.1V42.7h7.5V73.6z"/>
	<path class="st0" d="M294.4,80.7c0-1,0.3-1.9,0.9-2.5c0.6-0.6,1.4-0.9,2.4-0.9c1,0,1.9,0.3,2.5,0.9c0.6,0.6,0.9,1.4,0.9,2.5
		c0,1-0.3,1.8-0.9,2.4c-0.6,0.6-1.4,0.9-2.5,0.9c-1,0-1.8-0.3-2.4-0.9C294.7,82.6,294.4,81.7,294.4,80.7z"/>
	<path class="st0" d="M327.9,81.5c-1.1,0.9-2.5,1.5-4.1,1.9s-3.2,0.7-4.9,0.7c-2.2,0-4.1-0.4-5.6-1.1c-1.5-0.7-2.8-1.7-3.8-3.1
		c-1-1.3-1.7-2.9-2.1-4.8c-0.4-1.9-0.7-4-0.7-6.2c0-4.9,1.1-8.7,3.2-11.3c2.1-2.6,5.2-3.9,9.3-3.9c1.8,0,3.4,0.1,4.7,0.4
		c1.3,0.3,2.4,0.7,3.5,1.2l-1.3,4c-0.9-0.5-1.9-0.9-2.9-1.2c-1.1-0.3-2.2-0.4-3.5-0.4c-5.4,0-8.2,3.7-8.2,11.2
		c0,1.5,0.1,2.9,0.4,4.2c0.3,1.3,0.8,2.5,1.4,3.5c0.7,1,1.6,1.9,2.6,2.5c1.1,0.6,2.4,0.9,4.1,0.9c1.4,0,2.6-0.2,3.7-0.6
		c1.1-0.4,2-0.9,2.7-1.5L327.9,81.5z"/>
	<path class="st0" d="M331.3,68.9c0-4.9,1.1-8.7,3.2-11.3c2.2-2.6,5.3-3.9,9.3-3.9c2.1,0,4,0.4,5.6,1.1c1.6,0.7,2.9,1.7,3.9,3.1
		c1,1.3,1.8,2.9,2.3,4.8c0.5,1.9,0.7,4,0.7,6.2c0,4.9-1.1,8.7-3.2,11.3c-2.2,2.6-5.3,3.9-9.3,3.9c-2.1,0-4-0.4-5.6-1.1
		c-1.6-0.7-2.9-1.7-3.9-3.1c-1-1.3-1.8-2.9-2.3-4.8C331.5,73.3,331.3,71.2,331.3,68.9z M336,68.9c0,1.5,0.1,2.9,0.4,4.2
		c0.3,1.4,0.7,2.5,1.4,3.5c0.6,1,1.4,1.8,2.4,2.4c1,0.6,2.2,0.9,3.6,0.9c5.2,0,7.8-3.7,7.8-11.2c0-1.5-0.1-2.9-0.4-4.3
		c-0.3-1.4-0.7-2.5-1.4-3.5c-0.6-1-1.4-1.8-2.4-2.4c-1-0.6-2.2-0.9-3.6-0.9C338.7,57.7,336,61.4,336,68.9z"/>
	<path class="st0" d="M380.6,83.4V67c0-1.5-0.1-2.9-0.2-4c-0.1-1.1-0.4-2.1-0.8-2.9c-0.4-0.8-0.9-1.4-1.6-1.7
		c-0.7-0.4-1.6-0.6-2.8-0.6c-1.8,0-3.2,0.5-4.4,1.6c-1.2,1.1-2,2.4-2.4,4.1v20h-4.6v-29h3.2l0.9,3.5h0.2c1-1.2,2.2-2.3,3.6-3
		c1.4-0.8,3.1-1.2,5.3-1.2c1.8,0,3.3,0.4,4.5,1.1c1.2,0.7,2.1,2,2.7,3.7c0.9-1.5,2.1-2.7,3.7-3.5c1.6-0.9,3.3-1.3,5.3-1.3
		c1.6,0,3,0.2,4.1,0.6c1.1,0.4,2,1,2.8,1.9c0.7,0.9,1.3,2.2,1.6,3.8c0.3,1.6,0.5,3.6,0.5,6v17.4h-4.6V65.9c0-1.4-0.1-2.6-0.2-3.6
		c-0.1-1-0.4-1.9-0.8-2.6c-0.4-0.7-1-1.2-1.7-1.5c-0.7-0.3-1.6-0.5-2.8-0.5c-1.9,0-3.4,0.5-4.5,1.6c-1.1,1.1-1.8,2.6-2.3,4.6v19.4
		H380.6z"/>
</g>
<g>
	<path class="st1" d="M64.1,95.2c-0.1,2-0.5,4.9,1.9,4.9c1.4,0,2.9,0,4.3,0c2.1,0,2.8-3.5,2-6.2C69.6,94.3,66.9,94.8,64.1,95.2z"/>
	<path class="st1" d="M16.5,94.1c-0.8,2.7-0.1,6,2,6c1.4,0,2.9,0,4.3,0c2.4,0,2.1-3.2,1.9-5.2C21.9,94.6,19.2,94.5,16.5,94.1z"/>
	<path class="st1" d="M75.5,65.3c-2.9-0.8-5.8,0.5-7.3,3.2c-2.1,4.4-2.4,5-3.5,7.5c-13.6-4.1-27.1-3.9-40.7,0.1
		c-1.1-2.4-3.5-7.9-3.5-8.1c-1.3-2.4-3.7-3.5-6.5-3.2c-2.7,0.3-5.1,2.7-5.6,5.5C8,73.2,9.4,76,12.1,77.2c0.8,0.4,1.1,0.9,1.1,1.7
		c0.2,2.6,0.6,5.3,0.9,7.9c0.2,2.3,1.4,3.9,3.5,4.6c1.7,0.6,3.5,1,5.3,1c14.3,0.1,28.5,0,42.8,0c0.7,0,1.4,0,2.1-0.1
		c4-0.5,6.3-2.4,6.6-5.5c0.3-2.6,0.7-5.2,0.9-7.8c0.1-1,0.4-1.5,1.3-1.9c2.6-1.2,3.9-3.7,3.6-6.5C80,68.1,78.1,66,75.5,65.3z
		 M22.6,81.9c0-0.1,0-0.3-0.1-0.4C22.6,81.6,22.6,81.7,22.6,81.9c0.1,0.6,0.6,0,1.2,0C23.2,81.9,22.7,82.4,22.6,81.9z"/>
	<path class="st1" d="M24.1,66l0.4,0.7l0,0.3c0.3,0.7,1,2.4,1.8,4.2c6.2-1.5,12.3-2.3,18.4-2.3c5.9,0,11.9,0.7,17.7,2.2
		c0.1-0.3,0.3-0.5,0.4-0.9l1.7-3.5l0-0.1l0.1-0.1c1-1.8,2.4-3.3,4.1-4.3c4.6-30.7,5-26.9,5-29.5c0-3.2-1.9-4.3-3.9-4.7
		c-0.4-7.1-6.3-12.8-13.5-12.8c-0.3,0-0.6,0-1,0C52.9,11.4,48.6,9,44,9c-4.6,0-8.9,2.4-11.3,6.2c-0.1,0-0.2,0-0.4,0
		c-7.2,0-13.2,5.7-13.5,12.9c-1.9,0.4-3.7,1.6-3.7,4.7c0,2.6,0.3-2.3,4.9,29.2C21.7,62.8,23.1,64.2,24.1,66z M44.4,61.6
		c-7.6,0-13.8-4.5-13.8-10c0-5.5,6.2-10,13.8-10c7.6,0,13.8,4.5,13.8,10C58.2,57.1,52,61.6,44.4,61.6z M32.2,20.2
		c0.5,0,0.9,0,1.4,0.1l1.9,0.3l0.8-1.7c1.4-3,4.4-4.9,7.7-4.9c3.3,0,6.3,1.9,7.7,5l0.8,1.8l2-0.4c0.6-0.1,1.2-0.2,1.8-0.2
		c4.4,0,8,3.3,8.5,7.6c-0.4,0-0.9,0-1.3,0c-5.1,0-9.4,3.4-10.1,7.8c-0.7-4.4-5-7.8-10.1-7.8c-3.9,0-7.3,2-9,4.9
		c-1.7-2.9-5.1-4.9-9-4.9c-0.5,0-1,0-1.5,0C24.2,23.5,27.9,20.2,32.2,20.2z"/>
</g>
</svg>
