<?xml version="1.0" encoding="utf-8"?>
<!-- Generator: Adobe Illustrator 19.2.1, SVG Export Plug-In . SVG Version: 6.00 Build 0)  -->
<svg version="1.1" id="Layer_1" xmlns="http://www.w3.org/2000/svg" xmlns:xlink="http://www.w3.org/1999/xlink" x="0px" y="0px"
	 viewBox="0 0 408.6 108.1" style="enable-background:new 0 0 408.6 108.1;" xml:space="preserve">
<style type="text/css">
	.st0{fill:#32A49B;}
	.st1{fill:#FFFFFF;}
	.st2{fill:none;}
	.st3{font-family:'PTSans-Regular';}
	.st4{font-size:55px;}
	.st5{fill:#2A9489;}
	.st6{font-family:'PTSans-Bold';}
</style>
<g>
	<g>
		<path class="st0" d="M43.7,28.5c5.5,0,10.1-4,10.8-9.3h9.6c0.1,0,0.1,0.1,0.1,0.1v78.8c0,0.1-0.1,0.1-0.1,0.1h-9.6
			c-0.7-5.2-5.3-6.1-10.8-6.1c-5.5,0-10.1,0.9-10.8,6.1h-9.6c-0.1,0-0.1-0.1-0.1-0.1V19.3c0-0.1,0.1-0.1,0.1-0.1h9.6
			C33.6,24.5,38.2,28.5,43.7,28.5z"/>
		<path class="st1" d="M35.8,60.1v-4.6c0-0.8-0.7-1.5-1.5-1.5c-0.8,0-1.5,0.7-1.5,1.5v4.6c0,0.8,0.7,1.5,1.5,1.5
			C35.1,61.5,35.8,60.9,35.8,60.1z"/>
		<path class="st1" d="M42,60.1V38.4c0-0.8-0.7-1.5-1.5-1.5c-0.8,0-1.5,0.7-1.5,1.5v21.7c0,0.8,0.7,1.5,1.5,1.5
			C41.4,61.5,42,60.9,42,60.1z"/>
		<path class="st1" d="M48.3,60.1V41.5c0-0.8-0.7-1.5-1.5-1.5c-0.8,0-1.5,0.7-1.5,1.5v18.6c0,0.8,0.7,1.5,1.5,1.5
			C47.6,61.5,48.3,60.9,48.3,60.1z"/>
		<path class="st1" d="M51.6,50.8v9.3c0,0.8,0.7,1.5,1.5,1.5c0.8,0,1.5-0.7,1.5-1.5v-9.3c0-0.8-0.7-1.5-1.5-1.5
			C52.3,49.3,51.6,50,51.6,50.8z"/>
		<path class="st1" d="M51.6,35.3v9.3c0,0.8,0.7,1.5,1.5,1.5c0.8,0,1.5-0.7,1.5-1.5v-9.3c0-0.8-0.7-1.5-1.5-1.5
			C52.3,33.9,51.6,34.5,51.6,35.3z"/>
		<path class="st1" d="M35.8,49.2v-4.6c0-0.8-0.7-1.5-1.5-1.5c-0.8,0-1.5,0.7-1.5,1.5v4.6c0,0.8,0.7,1.5,1.5,1.5
			C35.1,50.7,35.8,50,35.8,49.2z"/>
		<path class="st1" d="M32.8,33.8v4.6c0,0.8,0.7,1.5,1.5,1.5c0.8,0,1.5-0.7,1.5-1.5v-4.6c0-0.8-0.7-1.5-1.5-1.5
			C33.5,32.3,32.8,33,32.8,33.8z"/>
	</g>
	<g>
		<path class="st0" d="M53.1,78.4h-2.7c-0.7,0-1.4,0.6-1.4,1.4c0,0.8,0.6,1.4,1.4,1.4h2.7c0.7,0,1.4-0.6,1.4-1.4
			C54.5,79,53.8,78.4,53.1,78.4z"/>
		<path class="st0" d="M81.7,62.5"/>
		<path class="st0" d="M22,92.2h-5.6c-2.2,0-4.1-1.9-4.1-4.1V69.3c0-0.5-0.3-1-0.7-1.2c-2.1-1.1-3.3-3.2-3.3-5.5
			c0-3.4,2.7-6.2,6.1-6.2s6.1,2.8,6.1,6.2v11.7l0,0c0,3.8,3,6.9,6.8,6.9h17.7c0.7,0,1.4-0.6,1.4-1.4c0-0.8-0.6-1.4-1.4-1.4H27.2
			c-2.2,0-4.1-1.9-4.1-4.1c0-2.3,1.8-4.1,4.1-4.1h32.7c2.2,0,4.1,1.9,4.1,4.1c0,2.3-1.8,4.1-4.1,4.1h-1.4c-0.7,0-1.4,0.6-1.4,1.4
			c0,0.8,0.6,1.4,1.4,1.4h1.4c3.8,0,6.8-3.1,6.8-6.9l0,0V62.5c0-3.4,2.7-6.2,6.1-6.2c3.4,0,6.1,2.8,6.1,6.2c0,2.3-1.3,4.5-3.3,5.5
			c-0.5,0.2-0.7,0.7-0.7,1.2v18.8c0,2.3-1.8,4.1-4.1,4.1h-7.1H22z"/>
	</g>
	<path class="st1" d="M42,92.2"/>
	<path class="st1" d="M62.5,79.1H24.9c-0.7,0-1.2-0.5-1.2-1.2v-6.7c0-0.7,0.5-1.2,1.2-1.2h37.5c0.7,0,1.2,0.5,1.2,1.2v6.7
		C63.7,78.6,63.1,79.1,62.5,79.1z"/>
</g>
<rect x="99.6" y="38.6" class="st2" width="298.2" height="40.1"/>
<text transform="matrix(0.99 0 0 1 99.5646 77.1363)"><tspan x="0" y="0" class="st1 st3 st4">Seat</tspan><tspan x="103.1" y="0" class="st5 st6 st4">Gol</tspan><tspan x="182.3" y="0" class="st1 st3 st4">.com</tspan></text>
</svg>
