<?xml version="1.0" encoding="utf-8"?>
<!-- Generator: Adobe Illustrator 19.2.1, SVG Export Plug-In . SVG Version: 6.00 Build 0)  -->
<svg version="1.1" id="Layer_1" xmlns="http://www.w3.org/2000/svg" xmlns:xlink="http://www.w3.org/1999/xlink" x="0px" y="0px"
	 viewBox="0 0 64 64" style="enable-background:new 0 0 64 64;" xml:space="preserve">
<style type="text/css">
	.st0{fill:white;}
</style>
<g>
	<path class="st0" d="M25.9,52.2c6.4,0,12.2-2.3,16.7-6.2L60,63.4c0.4,0.4,0.9,0.6,1.4,0.6c0.5,0,1-0.2,1.4-0.6
		c0.4-0.4,0.6-0.9,0.6-1.4s-0.2-1-0.6-1.4L45.5,43.2c3.9-4.5,6.2-10.3,6.2-16.7c0-14.2-11.5-25.7-25.7-25.7
		C11.7,0.7,0.2,12.3,0.2,26.5C0.2,40.7,11.7,52.2,25.9,52.2z M25.9,4.7c12,0,21.7,9.7,21.7,21.7c0,12-9.7,21.7-21.7,21.7
		c-12,0-21.7-9.7-21.7-21.7C4.2,14.5,13.9,4.7,25.9,4.7z"/>
</g>
</svg>
