<?xml version="1.0" encoding="utf-8"?>
<!-- Generator: Adobe Illustrator 16.0.0, SVG Export Plug-In . SVG Version: 6.00 Build 0)  -->
<!DOCTYPE svg PUBLIC "-//W3C//DTD SVG 1.1//EN" "http://www.w3.org/Graphics/SVG/1.1/DTD/svg11.dtd">
<svg version="1.1" id="Layer_1" xmlns="http://www.w3.org/2000/svg" xmlns:xlink="http://www.w3.org/1999/xlink" x="0px" y="0px"
	 width="700px" height="700px" viewBox="0 0 700 700" enable-background="new 0 0 700 700" xml:space="preserve">
<g>
	<path fill="#31A49B" d="M493.625,644.42c-0.717,14.495-3.621,35.508,13.77,35.508c10.147,0,21.012,0,31.159,0
		c15.222,0,20.296-25.36,14.485-44.92C533.48,637.903,513.92,641.524,493.625,644.42z"/>
	<path fill="#31A49B" d="M148.709,636.451c-5.795,19.568-0.726,43.477,14.491,43.477c10.147,0,21.017,0,31.159,0
		c17.391,0,15.217-23.191,13.77-37.677C187.838,640.082,168.274,639.346,148.709,636.451z"/>
	<path fill="#31A49B" d="M576.24,427.765c-21.021-5.8-42.034,3.621-52.908,23.19c-15.212,31.876-17.391,36.233-25.359,54.341
		c-98.543-29.708-196.37-28.255-294.918,0.726c-7.969-17.391-25.359-57.245-25.359-58.688
		c-9.421-17.391-26.812-25.369-47.103-23.201c-19.564,2.179-36.955,19.569-40.576,39.855c-2.9,21.021,7.243,41.308,26.812,50.002
		c5.796,2.905,7.969,6.527,7.969,12.317c1.448,18.843,4.348,38.402,6.521,57.245c1.448,16.674,10.143,28.265,25.36,33.329
		c12.321,4.357,25.364,7.252,38.407,7.252c103.617,0.727,206.513,0,310.14,0c5.073,0,10.138,0,15.212-0.726
		c28.98-3.622,45.654-17.391,47.824-39.855c2.168-18.843,5.073-37.676,6.525-56.52c0.717-7.242,2.896-10.873,9.412-13.759
		c18.843-8.695,28.265-26.821,26.086-47.107C608.842,448.05,595.073,432.828,576.24,427.765z M192.912,548.056
		c0-0.736,0-2.179-0.727-2.905C192.912,545.877,192.912,546.604,192.912,548.056c0.722,4.338,4.348,0,8.695,0
		C197.26,548.056,193.634,551.677,192.912,548.056z"/>
	<path fill="#31A49B" d="M203.781,432.828l2.895,5.074v2.179c2.174,5.073,7.248,17.391,13.043,30.434
		c44.929-10.864,89.131-16.665,133.33-16.665c42.76,0,86.235,5.074,128.26,15.938c0.727-2.169,2.169-3.621,2.904-6.517
		l12.317-25.369v-0.717l0.716-0.726c7.243-13.043,17.391-23.907,29.707-31.16c33.339-222.456,36.234-194.922,36.234-213.76
		c0-23.191-13.77-31.16-28.255-34.06c-2.905-51.446-45.655-92.748-97.827-92.748c-2.178,0-4.348,0-7.252,0
		c-17.391-27.539-48.541-44.929-81.874-44.929c-33.334,0-64.493,17.39-81.884,44.929c-0.722,0-1.448,0-2.896,0
		c-52.176,0-95.652,41.302-97.826,93.474c-13.765,2.9-26.808,11.596-26.808,34.055c0,18.843,2.174-16.664,35.503,211.597
		C186.391,409.647,196.533,419.795,203.781,432.828z M350.879,400.952c-55.072,0-100-32.612-100-72.462
		c0-39.855,44.929-72.462,100-72.462c55.067,0,99.996,32.607,99.996,72.462C450.875,368.34,405.946,400.952,350.879,400.952z
		 M262.474,100.961c3.622,0,6.521,0,10.143,0.726l13.769,2.174l5.795-12.321c10.147-21.738,31.886-35.502,55.798-35.502
		s45.649,13.764,55.788,36.229l5.81,13.043l14.485-2.9c4.348-0.722,8.695-1.447,13.043-1.447c31.887,0,57.973,23.912,61.594,55.071
		c-2.905,0-6.526,0-9.422,0c-36.96,0-68.119,24.638-73.184,56.52c-5.074-31.881-36.233-56.52-73.188-56.52
		c-28.26,0-52.897,14.49-65.214,35.507c-12.317-21.017-36.955-35.507-65.214-35.507c-3.626,0-7.248,0-10.869,0
		C204.502,124.873,231.314,100.961,262.474,100.961z"/>
</g>
</svg>
