<?xml version="1.0" encoding="utf-8"?>
<!-- Generator: Adobe Illustrator 16.0.0, SVG Export Plug-In . SVG Version: 6.00 Build 0)  -->
<!DOCTYPE svg PUBLIC "-//W3C//DTD SVG 1.1//EN" "http://www.w3.org/Graphics/SVG/1.1/DTD/svg11.dtd">
<svg version="1.1" id="Layer_1" xmlns="http://www.w3.org/2000/svg" xmlns:xlink="http://www.w3.org/1999/xlink" x="0px" y="0px"
	 width="383.801px" height="102.914px" viewBox="0 0 383.801 102.914" enable-background="new 0 0 383.801 102.914"
	 xml:space="preserve">
<path fill="none" stroke="#20407D" stroke-width="1.5" stroke-linecap="round" stroke-linejoin="round" stroke-miterlimit="10" d="
	M8.614,3.709c0,0-24.329,51.546,12.598,96.603"/>
<path fill="none" stroke="#20407D" stroke-width="1.5" stroke-linecap="round" stroke-linejoin="round" stroke-miterlimit="10" d="
	M23.503,84.961c0,0,2.438,6.895,0.893,17.203c0,0-8.69-7.123-18.431-6.396"/>
<path fill="none" stroke="#20407D" stroke-width="1.5" stroke-linecap="round" stroke-linejoin="round" stroke-miterlimit="10" d="
	M102.477,17.646c0,0,39.646,23.292,6.072,60.016"/>
<path fill="none" stroke="#20407D" stroke-width="1.5" stroke-linecap="round" stroke-linejoin="round" stroke-miterlimit="10" d="
	M107.103,64.92c0,0-2.231,6.969-0.375,17.223c0,0,8.471-7.381,18.231-6.947"/>
<path fill="none" stroke="#20407D" stroke-width="1.5" stroke-linecap="round" stroke-linejoin="round" stroke-miterlimit="10" d="
	M160.205,15.424c0,0-26.341,56.044,18.386,77.845"/>
<path fill="none" stroke="#20407D" stroke-width="1.5" stroke-linecap="round" stroke-linejoin="round" stroke-miterlimit="10" d="
	M175.25,80.889c0,0,4.638,5.658,6.684,15.877c0,0-10.592-3.748-19.509,0.244"/>
<path fill="none" stroke="#20407D" stroke-width="1.5" stroke-linecap="round" stroke-linejoin="round" stroke-miterlimit="10" d="
	M235.464,11.941c0,0,52.109,33.458,25.821,75.706"/>
<path fill="none" stroke="#20407D" stroke-width="1.5" stroke-linecap="round" stroke-linejoin="round" stroke-miterlimit="10" d="
	M257.533,75.383c0,0-0.919,7.259,2.781,17c0,0,6.979-8.806,16.652-10.166"/>
<path fill="none" stroke="#20407D" stroke-width="1.5" stroke-linecap="round" stroke-linejoin="round" stroke-miterlimit="10" d="
	M309.458,5.83c0,0-23.965,18.865-30.613,55.336"/>
<path fill="none" stroke="#20407D" stroke-width="1.5" stroke-linecap="round" stroke-linejoin="round" stroke-miterlimit="10" d="
	M287.677,51.869c0,0-2.418,6.904-10.078,13.971c0,0-2.312-10.995-10.363-16.53"/>
<path fill="none" stroke="#20407D" stroke-width="1.5" stroke-linecap="round" stroke-linejoin="round" stroke-miterlimit="10" d="
	M379.597,0.75c0,0,18.52,42.087-30.197,52.222"/>
<path fill="none" stroke="#20407D" stroke-width="1.5" stroke-linecap="round" stroke-linejoin="round" stroke-miterlimit="10" d="
	M355.683,41.792c0,0-5.885,4.345-10.381,13.747c0,0,11.188-1.029,18.848,5.033"/>
</svg>
