<?xml version="1.0" encoding="utf-8"?>
<!-- Generator: Adobe Illustrator 16.0.0, SVG Export Plug-In . SVG Version: 6.00 Build 0)  -->
<!DOCTYPE svg PUBLIC "-//W3C//DTD SVG 1.1//EN" "http://www.w3.org/Graphics/SVG/1.1/DTD/svg11.dtd">
<svg version="1.1" id="Layer_1" xmlns="http://www.w3.org/2000/svg" xmlns:xlink="http://www.w3.org/1999/xlink" x="0px" y="0px"
	 width="420.316px" height="62.546px" viewBox="0 0 420.316 62.546" enable-background="new 0 0 420.316 62.546"
	 xml:space="preserve">
<g>
	<g>
		<path fill="#B1B3B6" d="M232.121,30.839l2.472-0.089c2.978-0.112,6.056-0.228,9.078-0.228c2.819,0,5.295,0.102,7.562,0.309
			l0.102,0.005c0.311,0,1.479-0.283,1.518-1.13c0.018-0.407-0.255-0.872-0.894-0.929c-2.366-0.216-4.938-0.321-7.86-0.321
			c-3.1,0-6.238,0.117-9.274,0.23l-2.317,0.085c-0.404,0.014-1.417,0.388-1.403,1.187C231.11,30.382,231.432,30.839,232.121,30.839z
			"/>
		<path fill="#B1B3B6" d="M231.455,38.848h0.045c1.957-0.057,3.939-0.191,5.855-0.32c1.289-0.088,2.578-0.176,3.867-0.24
			c0.956-0.049,1.949-0.125,2.959-0.207c1.725-0.135,3.509-0.275,5.235-0.275c1.555,0,2.878,0.115,4.046,0.352
			c0.764,0.15,1.5-0.41,1.571-1.121c0.058-0.574-0.331-1.062-0.946-1.188c-1.236-0.25-2.624-0.373-4.242-0.373
			c-1.623,0-3.265,0.121-4.852,0.236c-0.914,0.068-1.812,0.135-2.683,0.174c-1.507,0.07-3.016,0.172-4.524,0.273
			c-2.057,0.139-4.182,0.281-6.266,0.34c-0.707,0.02-1.272,0.582-1.263,1.252C230.268,38.375,230.781,38.848,231.455,38.848z"/>
		<path fill="#B1B3B6" d="M255.314,43.047c-1.855-0.391-3.956-0.572-6.611-0.572c-1.305,0-2.615,0.043-3.884,0.082
			c-0.763,0.025-1.52,0.049-2.265,0.062c-3.57,0.072-7.236,0.205-10.896,0.396c-0.313,0.018-1.412,0.342-1.39,1.178
			c0.011,0.412,0.325,0.857,0.99,0.857l0.104-0.002c2.768-0.146,5.752-0.262,9.124-0.354c0.864-0.025,1.745-0.062,2.636-0.1
			c1.555-0.062,3.162-0.131,4.744-0.131c2.552,0,4.578,0.176,6.378,0.555l0.214,0.021c0.19,0,1.475-0.197,1.562-1.062l0.018-0.779
			L255.314,43.047z"/>
	</g>
	<path fill="#B1B3B6" d="M231.93,15.781c-0.021,1.49-0.417,4.385,2.108,4.572c2.331,0.173,2.075-2.985,2.029-4.204
		c-0.044-1.167,0.128-4.053-1.922-4.133C231.506,11.912,231.904,14.296,231.93,15.781z"/>
	<path fill="#B1B3B6" d="M249.246,15.781c-0.021,1.49-0.417,4.385,2.108,4.572c2.331,0.173,2.075-2.985,2.029-4.204
		c-0.044-1.167,0.127-4.053-1.922-4.133C248.822,11.912,249.221,14.296,249.246,15.781z"/>
	<path fill="#B1B3B6" d="M258.816,15.952V15.95c-0.012-0.027-0.027-0.05-0.042-0.074c-0.099-0.203-0.288-0.36-0.585-0.358
		c-10.342,0.088-20.691,0.539-31.042,0.382c-0.313-0.005-0.511,0.167-0.604,0.388c-0.005,0.009-0.01,0.016-0.015,0.024
		c-0.008,0.021-0.011,0.043-0.017,0.064c-0.026,0.067-0.053,0.134-0.058,0.216c-0.455,7.263,0.277,7.254,0.125,14.526
		c-0.16,7.732-0.604,15.451-0.367,23.187c0.004,0.135,0.046,0.242,0.104,0.336c0.098,0.207,0.289,0.363,0.589,0.355
		c14.362-0.365,27.118-0.156,32.591-0.307c0.12-0.004,0.221-0.035,0.309-0.08c0.227-0.09,0.399-0.291,0.384-0.611
		c-0.714-15.012-0.596-22.781-1.306-37.788C258.878,16.112,258.851,16.028,258.816,15.952z M243.104,53.385
		c-5.177,0.275-10.342,0.107-15.52,0.215c-0.189-7.5,0.227-14.986,0.382-22.482c0.147-7.04-0.524-6.797-0.156-13.828
		c9.907,0.125,19.815-0.28,29.716-0.378c0.664,14.548,0.582,21.854,1.25,36.405C253.545,53.42,248.336,53.108,243.104,53.385z"/>
</g>
<g>
	<path fill="#B1B3B6" d="M111.575,42.801c0.003-0.008,0.007-0.014,0.01-0.02c-0.059-0.162-0.11-0.311-0.152-0.441
		C111.472,42.495,111.519,42.647,111.575,42.801z"/>
	<path fill="#B1B3B6" d="M128.674,50.932c-2.752-3.592-5.712-7.242-8.817-10.533c-1.58-1.674-3.312-4.088-5.858-3.836
		c-1.354-1.479-2.483-3.146-3.807-4.65c1.807-1.988,3.185-4.36,3.909-6.952c2.033-7.272-2.005-13.441-8.554-16.539
		c-6.6-3.123-15.051-1.942-19.768,3.985c-4.089,4.634-5.421,11.807-2.316,17.328c3.13,5.568,9.709,8.849,16.037,7.957
		c1.95-0.273,3.832-0.91,5.575-1.822c1.355,1.576,2.705,3.18,4.222,4.604c-0.524,2.201,1.539,4.812,2.616,6.541
		c2.36,3.787,5.38,7.111,8.133,10.607c1.303,1.57,3.085,4.203,5.412,4.158c1.801-0.037,4.897-2.213,5.552-3.893
		C131.94,55.504,130.03,52.7,128.674,50.932z M88.063,32.566c-5.773-5.005-5.83-13.459-0.875-19.075
		c4.951-6.223,13.934-6.231,20.123-2.041c7.602,5.146,6.766,14.831,0.278,20.559C102.063,36.883,93.771,37.512,88.063,32.566z
		 M110.162,38.846c-1.256-1.211-2.394-2.555-3.53-3.883c0.815-0.535,1.583-1.141,2.304-1.797c1.123,1.303,2.114,2.713,3.239,4.012
		C111.417,37.596,110.702,38.18,110.162,38.846z M128.987,57.137c-0.427,1.062-1.297,1.828-2.347,2.309l-0.013,0.094
		c-2.723,1.137-4.268-1.912-5.65-3.537c-1.382-1.625-4.064-5.041-6.666-8.414c-1.535-1.988-2.33-3.719-2.727-4.807
		c-0.003,0.006-0.007,0.012-0.01,0.02c-0.056-0.154-0.103-0.307-0.143-0.461c-0.157-0.488-0.209-0.768-0.209-0.768l0.089-0.172
		c0.006-0.717,0.265-1.42,0.937-2.076c2.533-2.473,5.359,1.184,6.944,2.973c2.975,3.355,6.233,6.887,8.733,10.611
		C128.889,54.344,129.648,55.497,128.987,57.137z"/>
	<path fill="#B1B3B6" d="M107.896,14.457c-4.705-4.743-12.526-6.001-17.87-1.729c-5.028,4.346-6.777,13.24-1.659,18.219
		c4.893,4.76,13.107,3.958,18.191-0.036C112.204,26.479,113.107,19.708,107.896,14.457z M105.758,29.847
		c-4.341,3.408-11.259,4.384-15.79,0.747c-5.239-4.205-3.821-12.755,0.859-16.801c4.357-3.482,10.472-2.884,14.807,0.44
		c2.32,1.78,4.481,4.677,4.587,7.716C110.334,25.204,108.188,27.938,105.758,29.847z"/>
</g>
<g>
	<path fill="#034EA2" d="M17.928,30.083c-0.967-0.975-2.575-1.232-3.674-0.355c-1.033,0.894-1.393,2.722-0.341,3.746
		c1.006,0.979,2.694,0.812,3.739-0.008C18.813,32.554,18.999,31.162,17.928,30.083z"/>
	<path fill="#034EA2" d="M34.417,30.083c0.967-0.975,2.575-1.232,3.673-0.355c1.034,0.894,1.393,2.722,0.341,3.746
		c-1.006,0.979-2.694,0.812-3.739-0.008C33.531,32.554,33.346,31.162,34.417,30.083z"/>
	<path fill="#034EA2" d="M23.709,29.626c-0.639,1.215-0.4,2.826,0.768,3.609c1.163,0.717,3.014,0.508,3.674-0.803
		c0.629-1.254-0.037-2.813-1.134-3.562C25.798,28.037,24.415,28.279,23.709,29.626z"/>
	<path fill="#034EA2" d="M0.001,30.649c-0.2,18.681,29.546,33.572,41.508,16.841c3.854,4.414,9.724,6.297,15.479,4.738
		c0.533-0.145,0.692-0.967,0.162-1.23c-4.379-2.15-7.464-5.783-8.827-10.48c-0.055-0.189-0.167-0.312-0.301-0.387
		c4.977-7.908,4.163-18.771-2.234-25.742C39.098,7.1,25.836,3.912,16.708,7.938c-4.621,2.038-8.396,6.025-11.464,9.938
		C2.354,21.562,0.051,25.859,0.001,30.649z M1.475,31.125c-0.133-6.158,3.769-11.387,7.793-15.66
		c4.433-4.707,9.4-7.794,16.049-7.784c6.12,0.012,12.789,1.894,17.576,5.808c7.875,6.439,9.27,18.577,3.889,27.008
		c-0.193,0.301,0.05,0.57,0.325,0.6c1.305,4.318,4,7.854,7.777,10.186c-4.887,0.688-9.784-1.221-12.845-5.252
		c-0.312-0.408-0.87-0.459-1.171,0c-7.472,11.35-22.909,7.715-31.529-0.057C5.143,42.19,1.602,36.952,1.475,31.125z"/>
</g>
<g>
	<path fill="#B1B3B6" d="M314.369,25.831c0.248,4.577,0.746,9.128,1.439,13.658c0.029,0.182,0.24,0.307,0.406,0.311
		c0.832,0.014,1.66,0.025,2.492,0.02c0.254,0,0.381-0.189,0.389-0.385c0.148,0.092,0.395,0.055,0.439-0.148
		c1.043-4.902,1.707-9.902,2.502-14.85c0.131-0.821,0.779-2.403,0.086-3.117c-0.738-0.76-3.24-0.445-4.205-0.523
		c-0.867-0.069-2.902-0.697-3.561,0.171C313.658,21.89,314.312,24.79,314.369,25.831z"/>
	<path fill="#B1B3B6" d="M315.457,45.469c-0.02,0.227,0.207,0.418,0.418,0.418c1.098,0.002,2.195,0.004,3.293,0.004
		c0.303,0,0.449-0.27,0.41-0.537c-0.148-0.986-0.301-1.973-0.453-2.961c0.133-0.131,0.105-0.43-0.115-0.488
		c-0.018-0.004-0.035-0.006-0.053-0.012c-0.088-0.07-0.201-0.094-0.316-0.068c-0.814-0.172-1.65-0.221-2.482-0.18
		c-0.236,0.01-0.379,0.176-0.402,0.402C315.639,43.186,315.555,44.329,315.457,45.469z"/>
	<g>
		<path fill="#B1B3B6" d="M336.83,12.384L336.83,12.384c-0.016-0.034-0.033-0.062-0.053-0.091c-0.119-0.247-0.348-0.438-0.709-0.436
			c-12.561,0.106-25.129,0.654-37.699,0.463c-0.379-0.006-0.619,0.203-0.732,0.472c-0.006,0.01-0.012,0.019-0.016,0.029
			c-0.012,0.026-0.016,0.053-0.021,0.078c-0.031,0.082-0.064,0.162-0.07,0.262c-0.553,8.821,0.336,3.892,0.152,12.724
			c-0.195,9.389-0.732,18.762-0.447,28.157c0.006,0.166,0.057,0.295,0.127,0.41c0.119,0.25,0.35,0.439,0.715,0.432
			c6.564-0.166,13.111,0.088,19.672-0.275c6.645-0.365,13.262,0.086,19.906-0.098c0.146-0.004,0.268-0.041,0.375-0.098
			c0.275-0.107,0.484-0.352,0.467-0.744c-0.867-18.229-0.723-22.745-1.586-40.97C336.904,12.578,336.871,12.479,336.83,12.384z
			 M317.748,52.926c-6.287,0.334-12.561,0.131-18.85,0.26c-0.229-9.107,0.275-18.197,0.465-27.301
			c0.178-8.55-0.637-3.336-0.189-11.875c12.031,0.151,24.064-0.34,36.088-0.46c0.807,17.668,0.707,21.623,1.518,39.292
			C330.428,52.967,324.102,52.588,317.748,52.926z"/>
	</g>
</g>
<g>
	<g>
		<path fill="#B1B3B6" d="M190.617,17.516c-0.221-1.98-1.502-3.232-2.713-4.488c-1.08-1.122-2.708-1.479-4.878-1.729
			c0.056-0.34,0.384-0.65,0.639-1.116c0.206-0.373,0.489-0.823,0.557-1.262c0.255-1.625-0.081-3.16-0.522-4.29
			c-0.518-1.327-0.835-1.919-1.888-2.793c-0.489-0.407-1.062-0.883-1.468-1.094c-1.258-0.664-3.465-0.917-4.869-0.62
			c-0.857,0.18-2.921,1.154-3.549,1.661c-0.975,0.783-1.637,2.077-2.076,3.571c-0.061,0.208-0.225,0.471-0.238,0.595
			c-0.045,0.383,0.109,0.866,0.092,1.331c-0.016,0.442-0.115,0.869-0.07,1.26c0.123,1.077,0.707,2.066,1.161,3.096
			c-2.05-0.167-3.632,0.728-4.683,1.748c-1.699,1.646-2.571,5.127-2.93,8.169c-0.162,1.388,0.026,2.896,0.04,4.364
			c0.013,1.491,0.169,2.89,0.278,4.215c0.104,1.262,0.043,2.624,0.115,3.85c0.051,0.9-0.131,1.797,0.021,2.516
			c0.202,0.941,1.271,1.867,1.881,2.127c0.823,0.342,2.023,0.352,3.083,0.338c0.168,2.93,0.392,6.502,0.244,9.545
			c-0.086,1.801-0.475,3.623-0.602,5.557c-0.071,1.133,0.01,2.42,0.113,3.625c0.08,0.908,0.428,1.961,0.836,2.803
			c0.599,1.24,1.506,2.516,3.58,1.891c0.477-0.143,0.852-0.605,1.289-0.973c0.409-0.348,0.89-0.67,1.126-1.049
			c0.485-0.779,0.71-1.934,0.864-2.969c0.168-1.123,0.334-2.287,0.46-3.334c0.296,1.445,0.443,2.605,1.003,3.912
			c0.119,0.277,0.304,0.527,0.414,0.811c0.293,0.748,0.599,1.605,1.072,2.137c0.354,0.396,1.186,1.07,1.71,1.168
			c1.48,0.27,2.859-1.197,3.306-2.031c0.846-1.582,0.545-3.953,0.594-6.223c0.023-1.068,0.279-2.268,0.377-3.48
			c0.25-3.137-0.098-7.889,0.146-10.955c1.459-0.178,3.28,0.105,4.045-0.998c0.21-0.309,0.312-0.947,0.392-1.486
			c0.23-1.592,0.071-3.256,0.198-5.108c0.304-4.326,1.111-8.317,1.021-12.808c-0.03-0.529-0.092-1.093-0.14-1.482
			C190.64,17.515,190.625,17.516,190.617,17.516z M171.078,6.973c0.06-0.648,0.014-1.26,0.229-1.779
			c0.111-0.268,0.407-0.624,0.64-0.967c0.231-0.343,0.423-0.772,0.64-1.043c0.678-0.853,1.977-1.522,2.985-1.657
			c0.866-0.116,1.872-0.161,2.751-0.175c0.025,0.001,0.056-0.002,0.082,0c1.091,0.124,1.666,0.817,2.363,1.382
			c0.412,0.339,0.894,0.591,1.141,0.952c0.213,0.312,0.406,0.87,0.578,1.328c0.17,0.451,0.363,1.021,0.42,1.475
			c0.275,2.291-0.41,3.757-1.661,4.753c-0.278,0.22-0.795,0.411-1.211,0.677c-0.404,0.259-0.748,0.608-1.128,0.75
			c-0.883,0.331-1.912,0.302-2.994,0.326c-0.238-0.101-0.113-0.542-0.411-0.588c-0.692,0.017-1.397-0.478-1.946-0.13
			c-0.471-0.547-0.998-0.559-1.385-0.946c-0.418-0.424-0.858-1.441-1.072-2.138C170.833,8.334,171.003,7.755,171.078,6.973z
			 M189.441,22.188c-0.144,2.221-0.598,4.733-0.749,7.039c-0.04,0.596-0.101,1.035-0.148,1.405
			c-0.312,2.313,0.265,5.451-0.669,7.259c-0.634,0.27-1.929,0.318-2.754,0.174c0.05-0.445,0.191-6.414-0.057-6.807
			c-0.112-0.173-0.089-8.123-0.074-8.361c-0.021-0.854,0.068-1.725-0.742-1.692c-0.584,0.02-0.607,0.694-0.557,1.335
			c0.103,1.293-0.016,2.361-0.053,3.258c-0.139,3.385,0.333,6.59,0.171,10.43c-0.195,4.617,0.058,9.242-0.13,13.695
			c-0.07,1.637-0.489,3.172-0.369,5.186c0.112,1.885-0.086,4.229-1.102,5.195c-0.111,0.105-0.246,0.205-0.353,0.275
			c-0.319,0.217-0.67,0.309-0.952,0.264c-0.375-0.059-0.831-0.277-1.156-0.666c-0.578-0.689-1.036-1.844-1.369-2.57
			c0,0-1.166-4.283-0.606-7.334c0,0-0.133-3.432-0.113-3.699c0.05-0.395,0.263-6.266,0.106-6.514s-0.422-0.232-0.491-0.512
			c0.056-0.748-0.153-1.34-0.899-1.176c-0.394,0.086-0.492,0.455-0.49,0.898c0.002,0.441,0.102,0.955,0.104,1.324
			c0.001,0.301-0.01,0.613-0.024,0.934c-0.046,0.912-0.146,1.896-0.188,2.912c-0.016,0.385-0.017,0.773-0.014,1.162
			c0.005,0.391,0.013,0.783,0.02,1.176c0.013,0.781,0.019,1.561-0.046,2.322c-0.106,1.281-0.303,2.406-0.453,3.768
			c-0.094,0.842-0.181,1.713-0.302,2.574c-0.251,1.775-0.323,3.621-1.256,4.637c-0.45,0.488-1.045,1.045-1.45,1.047
			c-0.323,0.004-0.646,0.006-0.973,0.008c-0.6-0.873-1.312-1.631-1.318-2.648c0.078,0.275-0.33-2.01-0.335-3.002
			c-0.001-0.141-0.464-1.451,0.126-2.469c0.574-2.992,0.17-5.242,0.426-6.887c0.318-1.326-0.324-6.885-0.144-7.25
			c0,0-0.06-1.516-0.105-1.924c0.003,0.002-0.06-1.602-0.062-1.848c-0.011-0.654,0.154-1.143,0.274-2.293
			c0.001-0.001,0.156-1.112,0.217-3.337c-0.008-0.57,0.455-4.104,0.53-4.371c-0.014-0.526,0.149-1.819,0.143-2.152
			c-0.118-0.821,0.999-1.868-0.509-1.553c-0.121,0.025-0.217,0.082-0.289,0.18c-0.22,0.292-0.27,0.847-0.354,1.435
			c-0.246,1.732-0.36,1.229-0.469,2.719c-0.159,2.211-0.582,4.74-0.688,7.276c-0.07,1.636,0.071,3.482-0.251,4.558h-0.002
			c-1.729,0.664-3.461-0.205-3.612-1.855c0.217-0.098-0.187-0.84,0.122-1.951c0.002-0.004-0.604-3.28-0.486-8.002
			c0.047-0.201-0.062-6.132,0.979-8.668c0.098-0.237,1.006-1.781,0.793-2.008c0.803-1.001,1.798-1.97,3.142-2.174
			c0.772-0.117,1.663-0.199,2.429-0.097c0.85,0.112,1.395,0.603,2.115,0.868c0.972,0.356,2.342,0.696,3.811,0.48
			c1.03-0.151,1.68-0.832,2.585-1.135c0.624-0.208,1.099-0.131,1.78-0.239c0.27-0.042,0.503-0.213,0.728-0.23
			c0.532-0.037,1.286,0.096,1.866,0.203c1.18,0.226,1.596,0.521,2.196,1.165c0.489,0.521,0.885,0.8,1.31,1.317
			C189.574,16.873,189.621,19.434,189.441,22.188z"/>
	</g>
	<g>
		<path fill="#B1B3B6" d="M179.712,17.79c-3.006-1.392-7.908,2.124-5.48,5.349c0.047,0.063,0.127,0.057,0.165,0.014
			c0.021,0.109,0.146,0.213,0.282,0.151c0.423-0.188,1.112-0.353,1.412-0.742c0.26-0.343,0.152-0.912,0.248-1.296
			c0.168-0.655,0.598-1.499,1.442-1.461c0.562,0.027,1.02,0.594,1.12,1.096c0.229,1.157-0.869,1.934-1.807,2.255
			c-0.089,0.031-0.147,0.105-0.151,0.201c-0.026,0.711-0.055,1.421-0.08,2.135c-0.017,0.407-0.196,1.188-0.027,1.564
			c0.269,0.598,1.368,0.214,1.901,0.148c0.115,0.056,0.297,0,0.312-0.171c0.053-0.624,0.011-1.357,0.166-1.962
			c0.174-0.676,0.715-0.81,1.188-1.21c0.645-0.547,1.108-1.312,1.287-2.14C182.033,20.136,181.185,18.472,179.712,17.79z"/>
		<path fill="#B1B3B6" d="M178.985,28.832c-0.009-0.187-0.058-0.338-0.245-0.41c-0.223-0.092-0.568-0.019-0.805-0.011
			c-0.354,0.014-0.743-0.018-1.08,0.102c-0.096,0.034-0.1,0.165,0,0.196c0.01,0.005,0.021,0.007,0.031,0.009
			c-0.239,0.362-0.2,0.886-0.131,1.294c0.014,0.086,0.117,0.156,0.201,0.152c0.605-0.023,1.204,0.003,1.806,0.083
			c0.109,0.015,0.202-0.106,0.204-0.203C178.972,29.643,179.002,29.232,178.985,28.832z"/>
	</g>
</g>
<path fill="#B1B3B6" stroke="#FFFFFF" stroke-width="1.2336" stroke-miterlimit="10" d="M419.662,27.218
	c0.979-12.454-17.275-16.798-23.369-7.473c-8.854-8.415-26.383-5.978-27.051,8.561c-0.576,12.515,12.936,22.951,23.457,27.033
	c1.287,0.496,2.398-0.627,2.395-1.645C405.51,48.014,418.658,40.004,419.662,27.218z M395.582,49.75
	c-0.619-0.383-1.613-0.279-2.605,0.77c0,0-0.473,0.502-0.969,1.025c-6.875-3.146-13.072-8.242-17.184-14.543
	c-8.693-13.309,8.74-25.608,19.635-14.572c0.266,0.27,0.555,0.378,0.844,0.422c0.146,0.367,0.426,0.661,0.748,0.867
	c0.758-0.429,1.551-0.803,2.359-1.118c3.045-6.183,12.732-6.011,16.676-0.824c3.826,5.029-0.191,11.922-3.486,15.85
	C407.336,42.711,401.439,46.467,395.582,49.75z"/>
<g>
	<g>
		<path fill="#B1B3B6" d="M232.121,30.839l2.472-0.089c2.978-0.112,6.056-0.228,9.078-0.228c2.819,0,5.295,0.102,7.562,0.309
			l0.102,0.005c0.311,0,1.479-0.283,1.518-1.13c0.018-0.407-0.255-0.872-0.894-0.929c-2.366-0.216-4.938-0.321-7.86-0.321
			c-3.1,0-6.238,0.117-9.274,0.23l-2.317,0.085c-0.404,0.014-1.417,0.388-1.403,1.187C231.11,30.382,231.432,30.839,232.121,30.839z
			"/>
		<path fill="#B1B3B6" d="M231.455,38.848h0.045c1.957-0.057,3.939-0.191,5.855-0.32c1.289-0.088,2.578-0.176,3.867-0.24
			c0.956-0.049,1.949-0.125,2.959-0.207c1.725-0.135,3.509-0.275,5.235-0.275c1.555,0,2.878,0.115,4.046,0.352
			c0.764,0.15,1.5-0.41,1.571-1.121c0.058-0.574-0.331-1.062-0.946-1.188c-1.236-0.25-2.624-0.373-4.242-0.373
			c-1.623,0-3.265,0.121-4.852,0.236c-0.914,0.068-1.812,0.135-2.683,0.174c-1.507,0.07-3.016,0.172-4.524,0.273
			c-2.057,0.139-4.182,0.281-6.266,0.34c-0.707,0.02-1.272,0.582-1.263,1.252C230.268,38.375,230.781,38.848,231.455,38.848z"/>
		<path fill="#B1B3B6" d="M255.314,43.047c-1.855-0.391-3.956-0.572-6.611-0.572c-1.305,0-2.615,0.043-3.884,0.082
			c-0.763,0.025-1.52,0.049-2.265,0.062c-3.57,0.072-7.236,0.205-10.896,0.396c-0.313,0.018-1.412,0.342-1.39,1.178
			c0.011,0.412,0.325,0.857,0.99,0.857l0.104-0.002c2.768-0.146,5.752-0.262,9.124-0.354c0.864-0.025,1.745-0.062,2.636-0.1
			c1.555-0.062,3.162-0.131,4.744-0.131c2.552,0,4.578,0.176,6.378,0.555l0.214,0.021c0.19,0,1.475-0.197,1.562-1.062l0.018-0.779
			L255.314,43.047z"/>
	</g>
	<path fill="#B1B3B6" d="M231.93,15.781c-0.021,1.49-0.417,4.385,2.108,4.572c2.331,0.173,2.075-2.985,2.029-4.204
		c-0.044-1.167,0.128-4.053-1.922-4.133C231.506,11.912,231.904,14.296,231.93,15.781z"/>
	<path fill="#B1B3B6" d="M249.246,15.781c-0.021,1.49-0.417,4.385,2.108,4.572c2.331,0.173,2.075-2.985,2.029-4.204
		c-0.044-1.167,0.127-4.053-1.922-4.133C248.822,11.912,249.221,14.296,249.246,15.781z"/>
	<path fill="#B1B3B6" d="M258.816,15.952V15.95c-0.012-0.027-0.027-0.05-0.042-0.074c-0.099-0.203-0.288-0.36-0.585-0.358
		c-10.342,0.088-20.691,0.539-31.042,0.382c-0.313-0.005-0.511,0.167-0.604,0.388c-0.005,0.009-0.01,0.016-0.015,0.024
		c-0.008,0.021-0.011,0.043-0.017,0.064c-0.026,0.067-0.053,0.134-0.058,0.216c-0.455,7.263,0.277,7.254,0.125,14.526
		c-0.16,7.732-0.604,15.451-0.367,23.187c0.004,0.135,0.046,0.242,0.104,0.336c0.098,0.207,0.289,0.363,0.589,0.355
		c14.362-0.365,27.118-0.156,32.591-0.307c0.12-0.004,0.221-0.035,0.309-0.08c0.227-0.09,0.399-0.291,0.384-0.611
		c-0.714-15.012-0.596-22.781-1.306-37.788C258.878,16.112,258.851,16.028,258.816,15.952z M243.104,53.385
		c-5.177,0.275-10.342,0.107-15.52,0.215c-0.189-7.5,0.227-14.986,0.382-22.482c0.147-7.04-0.524-6.797-0.156-13.828
		c9.907,0.125,19.815-0.28,29.716-0.378c0.664,14.548,0.582,21.854,1.25,36.405C253.545,53.42,248.336,53.108,243.104,53.385z"/>
</g>
<g>
	<path fill="#034EA2" d="M111.575,42.801c0.003-0.008,0.007-0.014,0.01-0.02c-0.059-0.162-0.11-0.311-0.152-0.441
		C111.472,42.495,111.519,42.647,111.575,42.801z"/>
	<path fill="#034EA2" d="M128.674,50.932c-2.752-3.592-5.712-7.242-8.817-10.533c-1.58-1.674-3.312-4.088-5.858-3.836
		c-1.354-1.479-2.483-3.146-3.807-4.65c1.807-1.988,3.185-4.36,3.909-6.952c2.033-7.272-2.005-13.441-8.554-16.539
		c-6.6-3.123-15.051-1.942-19.768,3.985c-4.089,4.634-5.421,11.807-2.316,17.328c3.13,5.568,9.709,8.849,16.037,7.957
		c1.95-0.273,3.832-0.91,5.575-1.822c1.355,1.576,2.705,3.18,4.222,4.604c-0.524,2.201,1.539,4.812,2.616,6.541
		c2.36,3.787,5.38,7.111,8.133,10.607c1.303,1.57,3.085,4.203,5.412,4.158c1.801-0.037,4.897-2.213,5.552-3.893
		C131.94,55.504,130.03,52.7,128.674,50.932z M88.063,32.566c-5.773-5.005-5.83-13.459-0.875-19.075
		c4.951-6.223,13.934-6.231,20.123-2.041c7.602,5.146,6.766,14.831,0.278,20.559C102.063,36.883,93.771,37.512,88.063,32.566z
		 M110.162,38.846c-1.256-1.211-2.394-2.555-3.53-3.883c0.815-0.535,1.583-1.141,2.304-1.797c1.123,1.303,2.114,2.713,3.239,4.012
		C111.417,37.596,110.702,38.18,110.162,38.846z M128.987,57.137c-0.427,1.062-1.297,1.828-2.347,2.309l-0.013,0.094
		c-2.723,1.137-4.268-1.912-5.65-3.537c-1.382-1.625-4.064-5.041-6.666-8.414c-1.535-1.988-2.33-3.719-2.727-4.807
		c-0.003,0.006-0.007,0.012-0.01,0.02c-0.056-0.154-0.103-0.307-0.143-0.461c-0.157-0.488-0.209-0.768-0.209-0.768l0.089-0.172
		c0.006-0.717,0.265-1.42,0.937-2.076c2.533-2.473,5.359,1.184,6.944,2.973c2.975,3.355,6.233,6.887,8.733,10.611
		C128.889,54.344,129.648,55.497,128.987,57.137z"/>
	<path fill="#034EA2" d="M107.896,14.457c-4.705-4.743-12.526-6.001-17.87-1.729c-5.028,4.346-6.777,13.24-1.659,18.219
		c4.893,4.76,13.107,3.958,18.191-0.036C112.204,26.479,113.107,19.708,107.896,14.457z M105.758,29.847
		c-4.341,3.408-11.259,4.384-15.79,0.747c-5.239-4.205-3.821-12.755,0.859-16.801c4.357-3.482,10.472-2.884,14.807,0.44
		c2.32,1.78,4.481,4.677,4.587,7.716C110.334,25.204,108.188,27.938,105.758,29.847z"/>
</g>
<g>
	<path fill="#B1B3B6" d="M17.928,30.083c-0.967-0.975-2.575-1.232-3.674-0.355c-1.033,0.894-1.393,2.722-0.341,3.746
		c1.006,0.979,2.694,0.812,3.739-0.008C18.813,32.554,18.999,31.162,17.928,30.083z"/>
	<path fill="#B1B3B6" d="M34.417,30.083c0.967-0.975,2.575-1.232,3.673-0.355c1.034,0.894,1.393,2.722,0.341,3.746
		c-1.006,0.979-2.694,0.812-3.739-0.008C33.531,32.554,33.346,31.162,34.417,30.083z"/>
	<path fill="#B1B3B6" d="M23.709,29.626c-0.639,1.215-0.4,2.826,0.768,3.609c1.163,0.717,3.014,0.508,3.674-0.803
		c0.629-1.254-0.037-2.813-1.134-3.562C25.798,28.037,24.415,28.279,23.709,29.626z"/>
	<path fill="#B1B3B6" d="M0.001,30.649c-0.2,18.681,29.546,33.572,41.508,16.841c3.854,4.414,9.724,6.297,15.479,4.738
		c0.533-0.145,0.692-0.967,0.162-1.23c-4.379-2.15-7.464-5.783-8.827-10.48c-0.055-0.189-0.167-0.312-0.301-0.387
		c4.977-7.908,4.163-18.771-2.234-25.742C39.098,7.1,25.836,3.912,16.708,7.938c-4.621,2.038-8.396,6.025-11.464,9.938
		C2.354,21.562,0.051,25.859,0.001,30.649z M1.475,31.125c-0.133-6.158,3.769-11.387,7.793-15.66
		c4.433-4.707,9.4-7.794,16.049-7.784c6.12,0.012,12.789,1.894,17.576,5.808c7.875,6.439,9.27,18.577,3.889,27.008
		c-0.193,0.301,0.05,0.57,0.325,0.6c1.305,4.318,4,7.854,7.777,10.186c-4.887,0.688-9.784-1.221-12.845-5.252
		c-0.312-0.408-0.87-0.459-1.171,0c-7.472,11.35-22.909,7.715-31.529-0.057C5.143,42.19,1.602,36.952,1.475,31.125z"/>
</g>
<g>
	<path fill="#B1B3B6" d="M314.369,25.831c0.248,4.577,0.746,9.128,1.439,13.658c0.029,0.182,0.24,0.307,0.406,0.311
		c0.832,0.014,1.66,0.025,2.492,0.02c0.254,0,0.381-0.189,0.389-0.385c0.148,0.092,0.395,0.055,0.439-0.148
		c1.043-4.902,1.707-9.902,2.502-14.85c0.131-0.821,0.779-2.403,0.086-3.117c-0.738-0.76-3.24-0.445-4.205-0.523
		c-0.867-0.069-2.902-0.697-3.561,0.171C313.658,21.89,314.312,24.79,314.369,25.831z"/>
	<path fill="#B1B3B6" d="M315.457,45.469c-0.02,0.227,0.207,0.418,0.418,0.418c1.098,0.002,2.195,0.004,3.293,0.004
		c0.303,0,0.449-0.27,0.41-0.537c-0.148-0.986-0.301-1.973-0.453-2.961c0.133-0.131,0.105-0.43-0.115-0.488
		c-0.018-0.004-0.035-0.006-0.053-0.012c-0.088-0.07-0.201-0.094-0.316-0.068c-0.814-0.172-1.65-0.221-2.482-0.18
		c-0.236,0.01-0.379,0.176-0.402,0.402C315.639,43.186,315.555,44.329,315.457,45.469z"/>
	<g>
		<path fill="#B1B3B6" d="M336.83,12.384L336.83,12.384c-0.016-0.034-0.033-0.062-0.053-0.091c-0.119-0.247-0.348-0.438-0.709-0.436
			c-12.561,0.106-25.129,0.654-37.699,0.463c-0.379-0.006-0.619,0.203-0.732,0.472c-0.006,0.01-0.012,0.019-0.016,0.029
			c-0.012,0.026-0.016,0.053-0.021,0.078c-0.031,0.082-0.064,0.162-0.07,0.262c-0.553,8.821,0.336,3.892,0.152,12.724
			c-0.195,9.389-0.732,18.762-0.447,28.157c0.006,0.166,0.057,0.295,0.127,0.41c0.119,0.25,0.35,0.439,0.715,0.432
			c6.564-0.166,13.111,0.088,19.672-0.275c6.645-0.365,13.262,0.086,19.906-0.098c0.146-0.004,0.268-0.041,0.375-0.098
			c0.275-0.107,0.484-0.352,0.467-0.744c-0.867-18.229-0.723-22.745-1.586-40.97C336.904,12.578,336.871,12.479,336.83,12.384z
			 M317.748,52.926c-6.287,0.334-12.561,0.131-18.85,0.26c-0.229-9.107,0.275-18.197,0.465-27.301
			c0.178-8.55-0.637-3.336-0.189-11.875c12.031,0.151,24.064-0.34,36.088-0.46c0.807,17.668,0.707,21.623,1.518,39.292
			C330.428,52.967,324.102,52.588,317.748,52.926z"/>
	</g>
</g>
<g>
	<g>
		<path fill="#B1B3B6" d="M190.617,17.516c-0.221-1.98-1.502-3.232-2.713-4.488c-1.08-1.122-2.708-1.479-4.878-1.729
			c0.056-0.34,0.384-0.65,0.639-1.116c0.206-0.373,0.489-0.823,0.557-1.262c0.255-1.625-0.081-3.16-0.522-4.29
			c-0.518-1.327-0.835-1.919-1.888-2.793c-0.489-0.407-1.062-0.883-1.468-1.094c-1.258-0.664-3.465-0.917-4.869-0.62
			c-0.857,0.18-2.921,1.154-3.549,1.661c-0.975,0.783-1.637,2.077-2.076,3.571c-0.061,0.208-0.225,0.471-0.238,0.595
			c-0.045,0.383,0.109,0.866,0.092,1.331c-0.016,0.442-0.115,0.869-0.07,1.26c0.123,1.077,0.707,2.066,1.161,3.096
			c-2.05-0.167-3.632,0.728-4.683,1.748c-1.699,1.646-2.571,5.127-2.93,8.169c-0.162,1.388,0.026,2.896,0.04,4.364
			c0.013,1.491,0.169,2.89,0.278,4.215c0.104,1.262,0.043,2.624,0.115,3.85c0.051,0.9-0.131,1.797,0.021,2.516
			c0.202,0.941,1.271,1.867,1.881,2.127c0.823,0.342,2.023,0.352,3.083,0.338c0.168,2.93,0.392,6.502,0.244,9.545
			c-0.086,1.801-0.475,3.623-0.602,5.557c-0.071,1.133,0.01,2.42,0.113,3.625c0.08,0.908,0.428,1.961,0.836,2.803
			c0.599,1.24,1.506,2.516,3.58,1.891c0.477-0.143,0.852-0.605,1.289-0.973c0.409-0.348,0.89-0.67,1.126-1.049
			c0.485-0.779,0.71-1.934,0.864-2.969c0.168-1.123,0.334-2.287,0.46-3.334c0.296,1.445,0.443,2.605,1.003,3.912
			c0.119,0.277,0.304,0.527,0.414,0.811c0.293,0.748,0.599,1.605,1.072,2.137c0.354,0.396,1.186,1.07,1.71,1.168
			c1.48,0.27,2.859-1.197,3.306-2.031c0.846-1.582,0.545-3.953,0.594-6.223c0.023-1.068,0.279-2.268,0.377-3.48
			c0.25-3.137-0.098-7.889,0.146-10.955c1.459-0.178,3.28,0.105,4.045-0.998c0.21-0.309,0.312-0.947,0.392-1.486
			c0.23-1.592,0.071-3.256,0.198-5.108c0.304-4.326,1.111-8.317,1.021-12.808c-0.03-0.529-0.092-1.093-0.14-1.482
			C190.64,17.515,190.625,17.516,190.617,17.516z M171.078,6.973c0.06-0.648,0.014-1.26,0.229-1.779
			c0.111-0.268,0.407-0.624,0.64-0.967c0.231-0.343,0.423-0.772,0.64-1.043c0.678-0.853,1.977-1.522,2.985-1.657
			c0.866-0.116,1.872-0.161,2.751-0.175c0.025,0.001,0.056-0.002,0.082,0c1.091,0.124,1.666,0.817,2.363,1.382
			c0.412,0.339,0.894,0.591,1.141,0.952c0.213,0.312,0.406,0.87,0.578,1.328c0.17,0.451,0.363,1.021,0.42,1.475
			c0.275,2.291-0.41,3.757-1.661,4.753c-0.278,0.22-0.795,0.411-1.211,0.677c-0.404,0.259-0.748,0.608-1.128,0.75
			c-0.883,0.331-1.912,0.302-2.994,0.326c-0.238-0.101-0.113-0.542-0.411-0.588c-0.692,0.017-1.397-0.478-1.946-0.13
			c-0.471-0.547-0.998-0.559-1.385-0.946c-0.418-0.424-0.858-1.441-1.072-2.138C170.833,8.334,171.003,7.755,171.078,6.973z
			 M189.441,22.188c-0.144,2.221-0.598,4.733-0.749,7.039c-0.04,0.596-0.101,1.035-0.148,1.405
			c-0.312,2.313,0.265,5.451-0.669,7.259c-0.634,0.27-1.929,0.318-2.754,0.174c0.05-0.445,0.191-6.414-0.057-6.807
			c-0.112-0.173-0.089-8.123-0.074-8.361c-0.021-0.854,0.068-1.725-0.742-1.692c-0.584,0.02-0.607,0.694-0.557,1.335
			c0.103,1.293-0.016,2.361-0.053,3.258c-0.139,3.385,0.333,6.59,0.171,10.43c-0.195,4.617,0.058,9.242-0.13,13.695
			c-0.07,1.637-0.489,3.172-0.369,5.186c0.112,1.885-0.086,4.229-1.102,5.195c-0.111,0.105-0.246,0.205-0.353,0.275
			c-0.319,0.217-0.67,0.309-0.952,0.264c-0.375-0.059-0.831-0.277-1.156-0.666c-0.578-0.689-1.036-1.844-1.369-2.57
			c0,0-1.166-4.283-0.606-7.334c0,0-0.133-3.432-0.113-3.699c0.05-0.395,0.263-6.266,0.106-6.514s-0.422-0.232-0.491-0.512
			c0.056-0.748-0.153-1.34-0.899-1.176c-0.394,0.086-0.492,0.455-0.49,0.898c0.002,0.441,0.102,0.955,0.104,1.324
			c0.001,0.301-0.01,0.613-0.024,0.934c-0.046,0.912-0.146,1.896-0.188,2.912c-0.016,0.385-0.017,0.773-0.014,1.162
			c0.005,0.391,0.013,0.783,0.02,1.176c0.013,0.781,0.019,1.561-0.046,2.322c-0.106,1.281-0.303,2.406-0.453,3.768
			c-0.094,0.842-0.181,1.713-0.302,2.574c-0.251,1.775-0.323,3.621-1.256,4.637c-0.45,0.488-1.045,1.045-1.45,1.047
			c-0.323,0.004-0.646,0.006-0.973,0.008c-0.6-0.873-1.312-1.631-1.318-2.648c0.078,0.275-0.33-2.01-0.335-3.002
			c-0.001-0.141-0.464-1.451,0.126-2.469c0.574-2.992,0.17-5.242,0.426-6.887c0.318-1.326-0.324-6.885-0.144-7.25
			c0,0-0.06-1.516-0.105-1.924c0.003,0.002-0.06-1.602-0.062-1.848c-0.011-0.654,0.154-1.143,0.274-2.293
			c0.001-0.001,0.156-1.112,0.217-3.337c-0.008-0.57,0.455-4.104,0.53-4.371c-0.014-0.526,0.149-1.819,0.143-2.152
			c-0.118-0.821,0.999-1.868-0.509-1.553c-0.121,0.025-0.217,0.082-0.289,0.18c-0.22,0.292-0.27,0.847-0.354,1.435
			c-0.246,1.732-0.36,1.229-0.469,2.719c-0.159,2.211-0.582,4.74-0.688,7.276c-0.07,1.636,0.071,3.482-0.251,4.558h-0.002
			c-1.729,0.664-3.461-0.205-3.612-1.855c0.217-0.098-0.187-0.84,0.122-1.951c0.002-0.004-0.604-3.28-0.486-8.002
			c0.047-0.201-0.062-6.132,0.979-8.668c0.098-0.237,1.006-1.781,0.793-2.008c0.803-1.001,1.798-1.97,3.142-2.174
			c0.772-0.117,1.663-0.199,2.429-0.097c0.85,0.112,1.395,0.603,2.115,0.868c0.972,0.356,2.342,0.696,3.811,0.48
			c1.03-0.151,1.68-0.832,2.585-1.135c0.624-0.208,1.099-0.131,1.78-0.239c0.27-0.042,0.503-0.213,0.728-0.23
			c0.532-0.037,1.286,0.096,1.866,0.203c1.18,0.226,1.596,0.521,2.196,1.165c0.489,0.521,0.885,0.8,1.31,1.317
			C189.574,16.873,189.621,19.434,189.441,22.188z"/>
	</g>
	<g>
		<path fill="#B1B3B6" d="M179.712,17.79c-3.006-1.392-7.908,2.124-5.48,5.349c0.047,0.063,0.127,0.057,0.165,0.014
			c0.021,0.109,0.146,0.213,0.282,0.151c0.423-0.188,1.112-0.353,1.412-0.742c0.26-0.343,0.152-0.912,0.248-1.296
			c0.168-0.655,0.598-1.499,1.442-1.461c0.562,0.027,1.02,0.594,1.12,1.096c0.229,1.157-0.869,1.934-1.807,2.255
			c-0.089,0.031-0.147,0.105-0.151,0.201c-0.026,0.711-0.055,1.421-0.08,2.135c-0.017,0.407-0.196,1.188-0.027,1.564
			c0.269,0.598,1.368,0.214,1.901,0.148c0.115,0.056,0.297,0,0.312-0.171c0.053-0.624,0.011-1.357,0.166-1.962
			c0.174-0.676,0.715-0.81,1.188-1.21c0.645-0.547,1.108-1.312,1.287-2.14C182.033,20.136,181.185,18.472,179.712,17.79z"/>
		<path fill="#B1B3B6" d="M178.985,28.832c-0.009-0.187-0.058-0.338-0.245-0.41c-0.223-0.092-0.568-0.019-0.805-0.011
			c-0.354,0.014-0.743-0.018-1.08,0.102c-0.096,0.034-0.1,0.165,0,0.196c0.01,0.005,0.021,0.007,0.031,0.009
			c-0.239,0.362-0.2,0.886-0.131,1.294c0.014,0.086,0.117,0.156,0.201,0.152c0.605-0.023,1.204,0.003,1.806,0.083
			c0.109,0.015,0.202-0.106,0.204-0.203C178.972,29.643,179.002,29.232,178.985,28.832z"/>
	</g>
</g>
<path fill="#B1B3B6" stroke="#FFFFFF" stroke-width="1.2336" stroke-miterlimit="10" d="M419.662,27.218
	c0.979-12.454-17.275-16.798-23.369-7.473c-8.854-8.415-26.383-5.978-27.051,8.561c-0.576,12.515,12.936,22.951,23.457,27.033
	c1.287,0.496,2.398-0.627,2.395-1.645C405.51,48.014,418.658,40.004,419.662,27.218z M395.582,49.75
	c-0.619-0.383-1.613-0.279-2.605,0.77c0,0-0.473,0.502-0.969,1.025c-6.875-3.146-13.072-8.242-17.184-14.543
	c-8.693-13.309,8.74-25.608,19.635-14.572c0.266,0.27,0.555,0.378,0.844,0.422c0.146,0.367,0.426,0.661,0.748,0.867
	c0.758-0.429,1.551-0.803,2.359-1.118c3.045-6.183,12.732-6.011,16.676-0.824c3.826,5.029-0.191,11.922-3.486,15.85
	C407.336,42.711,401.439,46.467,395.582,49.75z"/>
<g>
	<g>
		<path fill="#B1B3B6" d="M232.121,30.839l2.472-0.089c2.978-0.112,6.056-0.228,9.078-0.228c2.819,0,5.295,0.102,7.562,0.309
			l0.102,0.005c0.311,0,1.479-0.283,1.518-1.13c0.018-0.407-0.255-0.872-0.894-0.929c-2.366-0.216-4.938-0.321-7.86-0.321
			c-3.1,0-6.238,0.117-9.274,0.23l-2.317,0.085c-0.404,0.014-1.417,0.388-1.403,1.187C231.11,30.382,231.432,30.839,232.121,30.839z
			"/>
		<path fill="#B1B3B6" d="M231.455,38.848h0.045c1.957-0.057,3.939-0.191,5.855-0.32c1.289-0.088,2.578-0.176,3.867-0.24
			c0.956-0.049,1.949-0.125,2.959-0.207c1.725-0.135,3.509-0.275,5.235-0.275c1.555,0,2.878,0.115,4.046,0.352
			c0.764,0.15,1.5-0.41,1.571-1.121c0.058-0.574-0.331-1.062-0.946-1.188c-1.236-0.25-2.624-0.373-4.242-0.373
			c-1.623,0-3.265,0.121-4.852,0.236c-0.914,0.068-1.812,0.135-2.683,0.174c-1.507,0.07-3.016,0.172-4.524,0.273
			c-2.057,0.139-4.182,0.281-6.266,0.34c-0.707,0.02-1.272,0.582-1.263,1.252C230.268,38.375,230.781,38.848,231.455,38.848z"/>
		<path fill="#B1B3B6" d="M255.314,43.047c-1.855-0.391-3.956-0.572-6.611-0.572c-1.305,0-2.615,0.043-3.884,0.082
			c-0.763,0.025-1.52,0.049-2.265,0.062c-3.57,0.072-7.236,0.205-10.896,0.396c-0.313,0.018-1.412,0.342-1.39,1.178
			c0.011,0.412,0.325,0.857,0.99,0.857l0.104-0.002c2.768-0.146,5.752-0.262,9.124-0.354c0.864-0.025,1.745-0.062,2.636-0.1
			c1.555-0.062,3.162-0.131,4.744-0.131c2.552,0,4.578,0.176,6.378,0.555l0.214,0.021c0.19,0,1.475-0.197,1.562-1.062l0.018-0.779
			L255.314,43.047z"/>
	</g>
	<path fill="#B1B3B6" d="M231.93,15.781c-0.021,1.49-0.417,4.385,2.108,4.572c2.331,0.173,2.075-2.985,2.029-4.204
		c-0.044-1.167,0.128-4.053-1.922-4.133C231.506,11.912,231.904,14.296,231.93,15.781z"/>
	<path fill="#B1B3B6" d="M249.246,15.781c-0.021,1.49-0.417,4.385,2.108,4.572c2.331,0.173,2.075-2.985,2.029-4.204
		c-0.044-1.167,0.127-4.053-1.922-4.133C248.822,11.912,249.221,14.296,249.246,15.781z"/>
	<path fill="#B1B3B6" d="M258.816,15.952V15.95c-0.012-0.027-0.027-0.05-0.042-0.074c-0.099-0.203-0.288-0.36-0.585-0.358
		c-10.342,0.088-20.691,0.539-31.042,0.382c-0.313-0.005-0.511,0.167-0.604,0.388c-0.005,0.009-0.01,0.016-0.015,0.024
		c-0.008,0.021-0.011,0.043-0.017,0.064c-0.026,0.067-0.053,0.134-0.058,0.216c-0.455,7.263,0.277,7.254,0.125,14.526
		c-0.16,7.732-0.604,15.451-0.367,23.187c0.004,0.135,0.046,0.242,0.104,0.336c0.098,0.207,0.289,0.363,0.589,0.355
		c14.362-0.365,27.118-0.156,32.591-0.307c0.12-0.004,0.221-0.035,0.309-0.08c0.227-0.09,0.399-0.291,0.384-0.611
		c-0.714-15.012-0.596-22.781-1.306-37.788C258.878,16.112,258.851,16.028,258.816,15.952z M243.104,53.385
		c-5.177,0.275-10.342,0.107-15.52,0.215c-0.189-7.5,0.227-14.986,0.382-22.482c0.147-7.04-0.524-6.797-0.156-13.828
		c9.907,0.125,19.815-0.28,29.716-0.378c0.664,14.548,0.582,21.854,1.25,36.405C253.545,53.42,248.336,53.108,243.104,53.385z"/>
</g>
<g>
	<path fill="#B1B3B6" d="M111.575,42.801c0.003-0.008,0.007-0.014,0.01-0.02c-0.059-0.162-0.11-0.311-0.152-0.441
		C111.472,42.495,111.519,42.647,111.575,42.801z"/>
	<path fill="#B1B3B6" d="M128.674,50.932c-2.752-3.592-5.712-7.242-8.817-10.533c-1.58-1.674-3.312-4.088-5.858-3.836
		c-1.354-1.479-2.483-3.146-3.807-4.65c1.807-1.988,3.185-4.36,3.909-6.952c2.033-7.272-2.005-13.441-8.554-16.539
		c-6.6-3.123-15.051-1.942-19.768,3.985c-4.089,4.634-5.421,11.807-2.316,17.328c3.13,5.568,9.709,8.849,16.037,7.957
		c1.95-0.273,3.832-0.91,5.575-1.822c1.355,1.576,2.705,3.18,4.222,4.604c-0.524,2.201,1.539,4.812,2.616,6.541
		c2.36,3.787,5.38,7.111,8.133,10.607c1.303,1.57,3.085,4.203,5.412,4.158c1.801-0.037,4.897-2.213,5.552-3.893
		C131.94,55.504,130.03,52.7,128.674,50.932z M88.063,32.566c-5.773-5.005-5.83-13.459-0.875-19.075
		c4.951-6.223,13.934-6.231,20.123-2.041c7.602,5.146,6.766,14.831,0.278,20.559C102.063,36.883,93.771,37.512,88.063,32.566z
		 M110.162,38.846c-1.256-1.211-2.394-2.555-3.53-3.883c0.815-0.535,1.583-1.141,2.304-1.797c1.123,1.303,2.114,2.713,3.239,4.012
		C111.417,37.596,110.702,38.18,110.162,38.846z M128.987,57.137c-0.427,1.062-1.297,1.828-2.347,2.309l-0.013,0.094
		c-2.723,1.137-4.268-1.912-5.65-3.537c-1.382-1.625-4.064-5.041-6.666-8.414c-1.535-1.988-2.33-3.719-2.727-4.807
		c-0.003,0.006-0.007,0.012-0.01,0.02c-0.056-0.154-0.103-0.307-0.143-0.461c-0.157-0.488-0.209-0.768-0.209-0.768l0.089-0.172
		c0.006-0.717,0.265-1.42,0.937-2.076c2.533-2.473,5.359,1.184,6.944,2.973c2.975,3.355,6.233,6.887,8.733,10.611
		C128.889,54.344,129.648,55.497,128.987,57.137z"/>
	<path fill="#B1B3B6" d="M107.896,14.457c-4.705-4.743-12.526-6.001-17.87-1.729c-5.028,4.346-6.777,13.24-1.659,18.219
		c4.893,4.76,13.107,3.958,18.191-0.036C112.204,26.479,113.107,19.708,107.896,14.457z M105.758,29.847
		c-4.341,3.408-11.259,4.384-15.79,0.747c-5.239-4.205-3.821-12.755,0.859-16.801c4.357-3.482,10.472-2.884,14.807,0.44
		c2.32,1.78,4.481,4.677,4.587,7.716C110.334,25.204,108.188,27.938,105.758,29.847z"/>
</g>
<g>
	<path fill="#B1B3B6" d="M17.928,30.083c-0.967-0.975-2.575-1.232-3.674-0.355c-1.033,0.894-1.393,2.722-0.341,3.746
		c1.006,0.979,2.694,0.812,3.739-0.008C18.813,32.554,18.999,31.162,17.928,30.083z"/>
	<path fill="#B1B3B6" d="M34.417,30.083c0.967-0.975,2.575-1.232,3.673-0.355c1.034,0.894,1.393,2.722,0.341,3.746
		c-1.006,0.979-2.694,0.812-3.739-0.008C33.531,32.554,33.346,31.162,34.417,30.083z"/>
	<path fill="#B1B3B6" d="M23.709,29.626c-0.639,1.215-0.4,2.826,0.768,3.609c1.163,0.717,3.014,0.508,3.674-0.803
		c0.629-1.254-0.037-2.813-1.134-3.562C25.798,28.037,24.415,28.279,23.709,29.626z"/>
	<path fill="#B1B3B6" d="M0.001,30.649c-0.2,18.681,29.546,33.572,41.508,16.841c3.854,4.414,9.724,6.297,15.479,4.738
		c0.533-0.145,0.692-0.967,0.162-1.23c-4.379-2.15-7.464-5.783-8.827-10.48c-0.055-0.189-0.167-0.312-0.301-0.387
		c4.977-7.908,4.163-18.771-2.234-25.742C39.098,7.1,25.836,3.912,16.708,7.938c-4.621,2.038-8.396,6.025-11.464,9.938
		C2.354,21.562,0.051,25.859,0.001,30.649z M1.475,31.125c-0.133-6.158,3.769-11.387,7.793-15.66
		c4.433-4.707,9.4-7.794,16.049-7.784c6.12,0.012,12.789,1.894,17.576,5.808c7.875,6.439,9.27,18.577,3.889,27.008
		c-0.193,0.301,0.05,0.57,0.325,0.6c1.305,4.318,4,7.854,7.777,10.186c-4.887,0.688-9.784-1.221-12.845-5.252
		c-0.312-0.408-0.87-0.459-1.171,0c-7.472,11.35-22.909,7.715-31.529-0.057C5.143,42.19,1.602,36.952,1.475,31.125z"/>
</g>
<g>
	<path fill="#B1B3B6" d="M314.369,25.831c0.248,4.577,0.746,9.128,1.439,13.658c0.029,0.182,0.24,0.307,0.406,0.311
		c0.832,0.014,1.66,0.025,2.492,0.02c0.254,0,0.381-0.189,0.389-0.385c0.148,0.092,0.395,0.055,0.439-0.148
		c1.043-4.902,1.707-9.902,2.502-14.85c0.131-0.821,0.779-2.403,0.086-3.117c-0.738-0.76-3.24-0.445-4.205-0.523
		c-0.867-0.069-2.902-0.697-3.561,0.171C313.658,21.89,314.312,24.79,314.369,25.831z"/>
	<path fill="#B1B3B6" d="M315.457,45.469c-0.02,0.227,0.207,0.418,0.418,0.418c1.098,0.002,2.195,0.004,3.293,0.004
		c0.303,0,0.449-0.27,0.41-0.537c-0.148-0.986-0.301-1.973-0.453-2.961c0.133-0.131,0.105-0.43-0.115-0.488
		c-0.018-0.004-0.035-0.006-0.053-0.012c-0.088-0.07-0.201-0.094-0.316-0.068c-0.814-0.172-1.65-0.221-2.482-0.18
		c-0.236,0.01-0.379,0.176-0.402,0.402C315.639,43.186,315.555,44.329,315.457,45.469z"/>
	<g>
		<path fill="#B1B3B6" d="M336.83,12.384L336.83,12.384c-0.016-0.034-0.033-0.062-0.053-0.091c-0.119-0.247-0.348-0.438-0.709-0.436
			c-12.561,0.106-25.129,0.654-37.699,0.463c-0.379-0.006-0.619,0.203-0.732,0.472c-0.006,0.01-0.012,0.019-0.016,0.029
			c-0.012,0.026-0.016,0.053-0.021,0.078c-0.031,0.082-0.064,0.162-0.07,0.262c-0.553,8.821,0.336,3.892,0.152,12.724
			c-0.195,9.389-0.732,18.762-0.447,28.157c0.006,0.166,0.057,0.295,0.127,0.41c0.119,0.25,0.35,0.439,0.715,0.432
			c6.564-0.166,13.111,0.088,19.672-0.275c6.645-0.365,13.262,0.086,19.906-0.098c0.146-0.004,0.268-0.041,0.375-0.098
			c0.275-0.107,0.484-0.352,0.467-0.744c-0.867-18.229-0.723-22.745-1.586-40.97C336.904,12.578,336.871,12.479,336.83,12.384z
			 M317.748,52.926c-6.287,0.334-12.561,0.131-18.85,0.26c-0.229-9.107,0.275-18.197,0.465-27.301
			c0.178-8.55-0.637-3.336-0.189-11.875c12.031,0.151,24.064-0.34,36.088-0.46c0.807,17.668,0.707,21.623,1.518,39.292
			C330.428,52.967,324.102,52.588,317.748,52.926z"/>
	</g>
</g>
<g>
	<g>
		<path fill="#034EA2" d="M190.617,17.516c-0.221-1.98-1.502-3.232-2.713-4.488c-1.08-1.122-2.708-1.479-4.878-1.729
			c0.056-0.34,0.384-0.65,0.639-1.116c0.206-0.373,0.489-0.823,0.557-1.262c0.255-1.625-0.081-3.16-0.522-4.29
			c-0.518-1.327-0.835-1.919-1.888-2.793c-0.489-0.407-1.062-0.883-1.468-1.094c-1.258-0.664-3.465-0.917-4.869-0.62
			c-0.857,0.18-2.921,1.154-3.549,1.661c-0.975,0.783-1.637,2.077-2.076,3.571c-0.061,0.208-0.225,0.471-0.238,0.595
			c-0.045,0.383,0.109,0.866,0.092,1.331c-0.016,0.442-0.115,0.869-0.07,1.26c0.123,1.077,0.707,2.066,1.161,3.096
			c-2.05-0.167-3.632,0.728-4.683,1.748c-1.699,1.646-2.571,5.127-2.93,8.169c-0.162,1.388,0.026,2.896,0.04,4.364
			c0.013,1.491,0.169,2.89,0.278,4.215c0.104,1.262,0.043,2.624,0.115,3.85c0.051,0.9-0.131,1.797,0.021,2.516
			c0.202,0.941,1.271,1.867,1.881,2.127c0.823,0.342,2.023,0.352,3.083,0.338c0.168,2.93,0.392,6.502,0.244,9.545
			c-0.086,1.801-0.475,3.623-0.602,5.557c-0.071,1.133,0.01,2.42,0.113,3.625c0.08,0.908,0.428,1.961,0.836,2.803
			c0.599,1.24,1.506,2.516,3.58,1.891c0.477-0.143,0.852-0.605,1.289-0.973c0.409-0.348,0.89-0.67,1.126-1.049
			c0.485-0.779,0.71-1.934,0.864-2.969c0.168-1.123,0.334-2.287,0.46-3.334c0.296,1.445,0.443,2.605,1.003,3.912
			c0.119,0.277,0.304,0.527,0.414,0.811c0.293,0.748,0.599,1.605,1.072,2.137c0.354,0.396,1.186,1.07,1.71,1.168
			c1.48,0.27,2.859-1.197,3.306-2.031c0.846-1.582,0.545-3.953,0.594-6.223c0.023-1.068,0.279-2.268,0.377-3.48
			c0.25-3.137-0.098-7.889,0.146-10.955c1.459-0.178,3.28,0.105,4.045-0.998c0.21-0.309,0.312-0.947,0.392-1.486
			c0.23-1.592,0.071-3.256,0.198-5.108c0.304-4.326,1.111-8.317,1.021-12.808c-0.03-0.529-0.092-1.093-0.14-1.482
			C190.64,17.515,190.625,17.516,190.617,17.516z M171.078,6.973c0.06-0.648,0.014-1.26,0.229-1.779
			c0.111-0.268,0.407-0.624,0.64-0.967c0.231-0.343,0.423-0.772,0.64-1.043c0.678-0.853,1.977-1.522,2.985-1.657
			c0.866-0.116,1.872-0.161,2.751-0.175c0.025,0.001,0.056-0.002,0.082,0c1.091,0.124,1.666,0.817,2.363,1.382
			c0.412,0.339,0.894,0.591,1.141,0.952c0.213,0.312,0.406,0.87,0.578,1.328c0.17,0.451,0.363,1.021,0.42,1.475
			c0.275,2.291-0.41,3.757-1.661,4.753c-0.278,0.22-0.795,0.411-1.211,0.677c-0.404,0.259-0.748,0.608-1.128,0.75
			c-0.883,0.331-1.912,0.302-2.994,0.326c-0.238-0.101-0.113-0.542-0.411-0.588c-0.692,0.017-1.397-0.478-1.946-0.13
			c-0.471-0.547-0.998-0.559-1.385-0.946c-0.418-0.424-0.858-1.441-1.072-2.138C170.833,8.334,171.003,7.755,171.078,6.973z
			 M189.441,22.188c-0.144,2.221-0.598,4.733-0.749,7.039c-0.04,0.596-0.101,1.035-0.148,1.405
			c-0.312,2.313,0.265,5.451-0.669,7.259c-0.634,0.27-1.929,0.318-2.754,0.174c0.05-0.445,0.191-6.414-0.057-6.807
			c-0.112-0.173-0.089-8.123-0.074-8.361c-0.021-0.854,0.068-1.725-0.742-1.692c-0.584,0.02-0.607,0.694-0.557,1.335
			c0.103,1.293-0.016,2.361-0.053,3.258c-0.139,3.385,0.333,6.59,0.171,10.43c-0.195,4.617,0.058,9.242-0.13,13.695
			c-0.07,1.637-0.489,3.172-0.369,5.186c0.112,1.885-0.086,4.229-1.102,5.195c-0.111,0.105-0.246,0.205-0.353,0.275
			c-0.319,0.217-0.67,0.309-0.952,0.264c-0.375-0.059-0.831-0.277-1.156-0.666c-0.578-0.689-1.036-1.844-1.369-2.57
			c0,0-1.166-4.283-0.606-7.334c0,0-0.133-3.432-0.113-3.699c0.05-0.395,0.263-6.266,0.106-6.514s-0.422-0.232-0.491-0.512
			c0.056-0.748-0.153-1.34-0.899-1.176c-0.394,0.086-0.492,0.455-0.49,0.898c0.002,0.441,0.102,0.955,0.104,1.324
			c0.001,0.301-0.01,0.613-0.024,0.934c-0.046,0.912-0.146,1.896-0.188,2.912c-0.016,0.385-0.017,0.773-0.014,1.162
			c0.005,0.391,0.013,0.783,0.02,1.176c0.013,0.781,0.019,1.561-0.046,2.322c-0.106,1.281-0.303,2.406-0.453,3.768
			c-0.094,0.842-0.181,1.713-0.302,2.574c-0.251,1.775-0.323,3.621-1.256,4.637c-0.45,0.488-1.045,1.045-1.45,1.047
			c-0.323,0.004-0.646,0.006-0.973,0.008c-0.6-0.873-1.312-1.631-1.318-2.648c0.078,0.275-0.33-2.01-0.335-3.002
			c-0.001-0.141-0.464-1.451,0.126-2.469c0.574-2.992,0.17-5.242,0.426-6.887c0.318-1.326-0.324-6.885-0.144-7.25
			c0,0-0.06-1.516-0.105-1.924c0.003,0.002-0.06-1.602-0.062-1.848c-0.011-0.654,0.154-1.143,0.274-2.293
			c0.001-0.001,0.156-1.112,0.217-3.337c-0.008-0.57,0.455-4.104,0.53-4.371c-0.014-0.526,0.149-1.819,0.143-2.152
			c-0.118-0.821,0.999-1.868-0.509-1.553c-0.121,0.025-0.217,0.082-0.289,0.18c-0.22,0.292-0.27,0.847-0.354,1.435
			c-0.246,1.732-0.36,1.229-0.469,2.719c-0.159,2.211-0.582,4.74-0.688,7.276c-0.07,1.636,0.071,3.482-0.251,4.558h-0.002
			c-1.729,0.664-3.461-0.205-3.612-1.855c0.217-0.098-0.187-0.84,0.122-1.951c0.002-0.004-0.604-3.28-0.486-8.002
			c0.047-0.201-0.062-6.132,0.979-8.668c0.098-0.237,1.006-1.781,0.793-2.008c0.803-1.001,1.798-1.97,3.142-2.174
			c0.772-0.117,1.663-0.199,2.429-0.097c0.85,0.112,1.395,0.603,2.115,0.868c0.972,0.356,2.342,0.696,3.811,0.48
			c1.03-0.151,1.68-0.832,2.585-1.135c0.624-0.208,1.099-0.131,1.78-0.239c0.27-0.042,0.503-0.213,0.728-0.23
			c0.532-0.037,1.286,0.096,1.866,0.203c1.18,0.226,1.596,0.521,2.196,1.165c0.489,0.521,0.885,0.8,1.31,1.317
			C189.574,16.873,189.621,19.434,189.441,22.188z"/>
	</g>
	<g>
		<path fill="#034EA2" d="M179.712,17.79c-3.006-1.392-7.908,2.124-5.48,5.349c0.047,0.063,0.127,0.057,0.165,0.014
			c0.021,0.109,0.146,0.213,0.282,0.151c0.423-0.188,1.112-0.353,1.412-0.742c0.26-0.343,0.152-0.912,0.248-1.296
			c0.168-0.655,0.598-1.499,1.442-1.461c0.562,0.027,1.02,0.594,1.12,1.096c0.229,1.157-0.869,1.934-1.807,2.255
			c-0.089,0.031-0.147,0.105-0.151,0.201c-0.026,0.711-0.055,1.421-0.08,2.135c-0.017,0.407-0.196,1.188-0.027,1.564
			c0.269,0.598,1.368,0.214,1.901,0.148c0.115,0.056,0.297,0,0.312-0.171c0.053-0.624,0.011-1.357,0.166-1.962
			c0.174-0.676,0.715-0.81,1.188-1.21c0.645-0.547,1.108-1.312,1.287-2.14C182.033,20.136,181.185,18.472,179.712,17.79z"/>
		<path fill="#034EA2" d="M178.985,28.832c-0.009-0.187-0.058-0.338-0.245-0.41c-0.223-0.092-0.568-0.019-0.805-0.011
			c-0.354,0.014-0.743-0.018-1.08,0.102c-0.096,0.034-0.1,0.165,0,0.196c0.01,0.005,0.021,0.007,0.031,0.009
			c-0.239,0.362-0.2,0.886-0.131,1.294c0.014,0.086,0.117,0.156,0.201,0.152c0.605-0.023,1.204,0.003,1.806,0.083
			c0.109,0.015,0.202-0.106,0.204-0.203C178.972,29.643,179.002,29.232,178.985,28.832z"/>
	</g>
</g>
<path fill="#B1B3B6" stroke="#FFFFFF" stroke-width="1.2336" stroke-miterlimit="10" d="M419.662,27.218
	c0.979-12.454-17.275-16.798-23.369-7.473c-8.854-8.415-26.383-5.978-27.051,8.561c-0.576,12.515,12.936,22.951,23.457,27.033
	c1.287,0.496,2.398-0.627,2.395-1.645C405.51,48.014,418.658,40.004,419.662,27.218z M395.582,49.75
	c-0.619-0.383-1.613-0.279-2.605,0.77c0,0-0.473,0.502-0.969,1.025c-6.875-3.146-13.072-8.242-17.184-14.543
	c-8.693-13.309,8.74-25.608,19.635-14.572c0.266,0.27,0.555,0.378,0.844,0.422c0.146,0.367,0.426,0.661,0.748,0.867
	c0.758-0.429,1.551-0.803,2.359-1.118c3.045-6.183,12.732-6.011,16.676-0.824c3.826,5.029-0.191,11.922-3.486,15.85
	C407.336,42.711,401.439,46.467,395.582,49.75z"/>
<g>
	<g>
		<path fill="#034EA2" d="M232.121,30.839l2.472-0.089c2.978-0.112,6.056-0.228,9.078-0.228c2.819,0,5.295,0.102,7.562,0.309
			l0.102,0.005c0.311,0,1.479-0.283,1.518-1.13c0.018-0.407-0.255-0.872-0.894-0.929c-2.366-0.216-4.938-0.321-7.86-0.321
			c-3.1,0-6.238,0.117-9.274,0.23l-2.317,0.085c-0.404,0.014-1.417,0.388-1.403,1.187C231.11,30.382,231.432,30.839,232.121,30.839z
			"/>
		<path fill="#034EA2" d="M231.455,38.848h0.045c1.957-0.057,3.939-0.191,5.855-0.32c1.289-0.088,2.578-0.176,3.867-0.24
			c0.956-0.049,1.949-0.125,2.959-0.207c1.725-0.135,3.509-0.275,5.235-0.275c1.555,0,2.878,0.115,4.046,0.352
			c0.764,0.15,1.5-0.41,1.571-1.121c0.058-0.574-0.331-1.062-0.946-1.188c-1.236-0.25-2.624-0.373-4.242-0.373
			c-1.623,0-3.265,0.121-4.852,0.236c-0.914,0.068-1.812,0.135-2.683,0.174c-1.507,0.07-3.016,0.172-4.524,0.273
			c-2.057,0.139-4.182,0.281-6.266,0.34c-0.707,0.02-1.272,0.582-1.263,1.252C230.268,38.375,230.781,38.848,231.455,38.848z"/>
		<path fill="#034EA2" d="M255.314,43.047c-1.855-0.391-3.956-0.572-6.611-0.572c-1.305,0-2.615,0.043-3.884,0.082
			c-0.763,0.025-1.52,0.049-2.265,0.062c-3.57,0.072-7.236,0.205-10.896,0.396c-0.313,0.018-1.412,0.342-1.39,1.178
			c0.011,0.412,0.325,0.857,0.99,0.857l0.104-0.002c2.768-0.146,5.752-0.262,9.124-0.354c0.864-0.025,1.745-0.062,2.636-0.1
			c1.555-0.062,3.162-0.131,4.744-0.131c2.552,0,4.578,0.176,6.378,0.555l0.214,0.021c0.19,0,1.475-0.197,1.562-1.062l0.018-0.779
			L255.314,43.047z"/>
	</g>
	<path fill="#034EA2" d="M231.93,15.781c-0.021,1.49-0.417,4.385,2.108,4.572c2.331,0.173,2.075-2.985,2.029-4.204
		c-0.044-1.167,0.128-4.053-1.922-4.133C231.506,11.912,231.904,14.296,231.93,15.781z"/>
	<path fill="#034EA2" d="M249.246,15.781c-0.021,1.49-0.417,4.385,2.108,4.572c2.331,0.173,2.075-2.985,2.029-4.204
		c-0.044-1.167,0.127-4.053-1.922-4.133C248.822,11.912,249.221,14.296,249.246,15.781z"/>
	<path fill="#034EA2" d="M258.816,15.952V15.95c-0.012-0.027-0.027-0.05-0.042-0.074c-0.099-0.203-0.288-0.36-0.585-0.358
		c-10.342,0.088-20.691,0.539-31.042,0.382c-0.313-0.005-0.511,0.167-0.604,0.388c-0.005,0.009-0.01,0.016-0.015,0.024
		c-0.008,0.021-0.011,0.043-0.017,0.064c-0.026,0.067-0.053,0.134-0.058,0.216c-0.455,7.263,0.277,7.254,0.125,14.526
		c-0.16,7.732-0.604,15.451-0.367,23.187c0.004,0.135,0.046,0.242,0.104,0.336c0.098,0.207,0.289,0.363,0.589,0.355
		c14.362-0.365,27.118-0.156,32.591-0.307c0.12-0.004,0.221-0.035,0.309-0.08c0.227-0.09,0.399-0.291,0.384-0.611
		c-0.714-15.012-0.596-22.781-1.306-37.788C258.878,16.112,258.851,16.028,258.816,15.952z M243.104,53.385
		c-5.177,0.275-10.342,0.107-15.52,0.215c-0.189-7.5,0.227-14.986,0.382-22.482c0.147-7.04-0.524-6.797-0.156-13.828
		c9.907,0.125,19.815-0.28,29.716-0.378c0.664,14.548,0.582,21.854,1.25,36.405C253.545,53.42,248.336,53.108,243.104,53.385z"/>
</g>
<g>
	<path fill="#B1B3B6" d="M111.575,42.801c0.003-0.008,0.007-0.014,0.01-0.02c-0.059-0.162-0.11-0.311-0.152-0.441
		C111.472,42.495,111.519,42.647,111.575,42.801z"/>
	<path fill="#B1B3B6" d="M128.674,50.932c-2.752-3.592-5.712-7.242-8.817-10.533c-1.58-1.674-3.312-4.088-5.858-3.836
		c-1.354-1.479-2.483-3.146-3.807-4.65c1.807-1.988,3.185-4.36,3.909-6.952c2.033-7.272-2.005-13.441-8.554-16.539
		c-6.6-3.123-15.051-1.942-19.768,3.985c-4.089,4.634-5.421,11.807-2.316,17.328c3.13,5.568,9.709,8.849,16.037,7.957
		c1.95-0.273,3.832-0.91,5.575-1.822c1.355,1.576,2.705,3.18,4.222,4.604c-0.524,2.201,1.539,4.812,2.616,6.541
		c2.36,3.787,5.38,7.111,8.133,10.607c1.303,1.57,3.085,4.203,5.412,4.158c1.801-0.037,4.897-2.213,5.552-3.893
		C131.94,55.504,130.03,52.7,128.674,50.932z M88.063,32.566c-5.773-5.005-5.83-13.459-0.875-19.075
		c4.951-6.223,13.934-6.231,20.123-2.041c7.602,5.146,6.766,14.831,0.278,20.559C102.063,36.883,93.771,37.512,88.063,32.566z
		 M110.162,38.846c-1.256-1.211-2.394-2.555-3.53-3.883c0.815-0.535,1.583-1.141,2.304-1.797c1.123,1.303,2.114,2.713,3.239,4.012
		C111.417,37.596,110.702,38.18,110.162,38.846z M128.987,57.137c-0.427,1.062-1.297,1.828-2.347,2.309l-0.013,0.094
		c-2.723,1.137-4.268-1.912-5.65-3.537c-1.382-1.625-4.064-5.041-6.666-8.414c-1.535-1.988-2.33-3.719-2.727-4.807
		c-0.003,0.006-0.007,0.012-0.01,0.02c-0.056-0.154-0.103-0.307-0.143-0.461c-0.157-0.488-0.209-0.768-0.209-0.768l0.089-0.172
		c0.006-0.717,0.265-1.42,0.937-2.076c2.533-2.473,5.359,1.184,6.944,2.973c2.975,3.355,6.233,6.887,8.733,10.611
		C128.889,54.344,129.648,55.497,128.987,57.137z"/>
	<path fill="#B1B3B6" d="M107.896,14.457c-4.705-4.743-12.526-6.001-17.87-1.729c-5.028,4.346-6.777,13.24-1.659,18.219
		c4.893,4.76,13.107,3.958,18.191-0.036C112.204,26.479,113.107,19.708,107.896,14.457z M105.758,29.847
		c-4.341,3.408-11.259,4.384-15.79,0.747c-5.239-4.205-3.821-12.755,0.859-16.801c4.357-3.482,10.472-2.884,14.807,0.44
		c2.32,1.78,4.481,4.677,4.587,7.716C110.334,25.204,108.188,27.938,105.758,29.847z"/>
</g>
<g>
	<path fill="#B1B3B6" d="M17.928,30.083c-0.967-0.975-2.575-1.232-3.674-0.355c-1.033,0.894-1.393,2.722-0.341,3.746
		c1.006,0.979,2.694,0.812,3.739-0.008C18.813,32.554,18.999,31.162,17.928,30.083z"/>
	<path fill="#B1B3B6" d="M34.417,30.083c0.967-0.975,2.575-1.232,3.673-0.355c1.034,0.894,1.393,2.722,0.341,3.746
		c-1.006,0.979-2.694,0.812-3.739-0.008C33.531,32.554,33.346,31.162,34.417,30.083z"/>
	<path fill="#B1B3B6" d="M23.709,29.626c-0.639,1.215-0.4,2.826,0.768,3.609c1.163,0.717,3.014,0.508,3.674-0.803
		c0.629-1.254-0.037-2.813-1.134-3.562C25.798,28.037,24.415,28.279,23.709,29.626z"/>
	<path fill="#B1B3B6" d="M0.001,30.649c-0.2,18.681,29.546,33.572,41.508,16.841c3.854,4.414,9.724,6.297,15.479,4.738
		c0.533-0.145,0.692-0.967,0.162-1.23c-4.379-2.15-7.464-5.783-8.827-10.48c-0.055-0.189-0.167-0.312-0.301-0.387
		c4.977-7.908,4.163-18.771-2.234-25.742C39.098,7.1,25.836,3.912,16.708,7.938c-4.621,2.038-8.396,6.025-11.464,9.938
		C2.354,21.562,0.051,25.859,0.001,30.649z M1.475,31.125c-0.133-6.158,3.769-11.387,7.793-15.66
		c4.433-4.707,9.4-7.794,16.049-7.784c6.12,0.012,12.789,1.894,17.576,5.808c7.875,6.439,9.27,18.577,3.889,27.008
		c-0.193,0.301,0.05,0.57,0.325,0.6c1.305,4.318,4,7.854,7.777,10.186c-4.887,0.688-9.784-1.221-12.845-5.252
		c-0.312-0.408-0.87-0.459-1.171,0c-7.472,11.35-22.909,7.715-31.529-0.057C5.143,42.19,1.602,36.952,1.475,31.125z"/>
</g>
<g>
	<path fill="#B1B3B6" d="M314.369,25.831c0.248,4.577,0.746,9.128,1.439,13.658c0.029,0.182,0.24,0.307,0.406,0.311
		c0.832,0.014,1.66,0.025,2.492,0.02c0.254,0,0.381-0.189,0.389-0.385c0.148,0.092,0.395,0.055,0.439-0.148
		c1.043-4.902,1.707-9.902,2.502-14.85c0.131-0.821,0.779-2.403,0.086-3.117c-0.738-0.76-3.24-0.445-4.205-0.523
		c-0.867-0.069-2.902-0.697-3.561,0.171C313.658,21.89,314.312,24.79,314.369,25.831z"/>
	<path fill="#B1B3B6" d="M315.457,45.469c-0.02,0.227,0.207,0.418,0.418,0.418c1.098,0.002,2.195,0.004,3.293,0.004
		c0.303,0,0.449-0.27,0.41-0.537c-0.148-0.986-0.301-1.973-0.453-2.961c0.133-0.131,0.105-0.43-0.115-0.488
		c-0.018-0.004-0.035-0.006-0.053-0.012c-0.088-0.07-0.201-0.094-0.316-0.068c-0.814-0.172-1.65-0.221-2.482-0.18
		c-0.236,0.01-0.379,0.176-0.402,0.402C315.639,43.186,315.555,44.329,315.457,45.469z"/>
	<g>
		<path fill="#B1B3B6" d="M336.83,12.384L336.83,12.384c-0.016-0.034-0.033-0.062-0.053-0.091c-0.119-0.247-0.348-0.438-0.709-0.436
			c-12.561,0.106-25.129,0.654-37.699,0.463c-0.379-0.006-0.619,0.203-0.732,0.472c-0.006,0.01-0.012,0.019-0.016,0.029
			c-0.012,0.026-0.016,0.053-0.021,0.078c-0.031,0.082-0.064,0.162-0.07,0.262c-0.553,8.821,0.336,3.892,0.152,12.724
			c-0.195,9.389-0.732,18.762-0.447,28.157c0.006,0.166,0.057,0.295,0.127,0.41c0.119,0.25,0.35,0.439,0.715,0.432
			c6.564-0.166,13.111,0.088,19.672-0.275c6.645-0.365,13.262,0.086,19.906-0.098c0.146-0.004,0.268-0.041,0.375-0.098
			c0.275-0.107,0.484-0.352,0.467-0.744c-0.867-18.229-0.723-22.745-1.586-40.97C336.904,12.578,336.871,12.479,336.83,12.384z
			 M317.748,52.926c-6.287,0.334-12.561,0.131-18.85,0.26c-0.229-9.107,0.275-18.197,0.465-27.301
			c0.178-8.55-0.637-3.336-0.189-11.875c12.031,0.151,24.064-0.34,36.088-0.46c0.807,17.668,0.707,21.623,1.518,39.292
			C330.428,52.967,324.102,52.588,317.748,52.926z"/>
	</g>
</g>
<g>
	<g>
		<path fill="#B1B3B6" d="M190.617,17.516c-0.221-1.98-1.502-3.232-2.713-4.488c-1.08-1.122-2.708-1.479-4.878-1.729
			c0.056-0.34,0.384-0.65,0.639-1.116c0.206-0.373,0.489-0.823,0.557-1.262c0.255-1.625-0.081-3.16-0.522-4.29
			c-0.518-1.327-0.835-1.919-1.888-2.793c-0.489-0.407-1.062-0.883-1.468-1.094c-1.258-0.664-3.465-0.917-4.869-0.62
			c-0.857,0.18-2.921,1.154-3.549,1.661c-0.975,0.783-1.637,2.077-2.076,3.571c-0.061,0.208-0.225,0.471-0.238,0.595
			c-0.045,0.383,0.109,0.866,0.092,1.331c-0.016,0.442-0.115,0.869-0.07,1.26c0.123,1.077,0.707,2.066,1.161,3.096
			c-2.05-0.167-3.632,0.728-4.683,1.748c-1.699,1.646-2.571,5.127-2.93,8.169c-0.162,1.388,0.026,2.896,0.04,4.364
			c0.013,1.491,0.169,2.89,0.278,4.215c0.104,1.262,0.043,2.624,0.115,3.85c0.051,0.9-0.131,1.797,0.021,2.516
			c0.202,0.941,1.271,1.867,1.881,2.127c0.823,0.342,2.023,0.352,3.083,0.338c0.168,2.93,0.392,6.502,0.244,9.545
			c-0.086,1.801-0.475,3.623-0.602,5.557c-0.071,1.133,0.01,2.42,0.113,3.625c0.08,0.908,0.428,1.961,0.836,2.803
			c0.599,1.24,1.506,2.516,3.58,1.891c0.477-0.143,0.852-0.605,1.289-0.973c0.409-0.348,0.89-0.67,1.126-1.049
			c0.485-0.779,0.71-1.934,0.864-2.969c0.168-1.123,0.334-2.287,0.46-3.334c0.296,1.445,0.443,2.605,1.003,3.912
			c0.119,0.277,0.304,0.527,0.414,0.811c0.293,0.748,0.599,1.605,1.072,2.137c0.354,0.396,1.186,1.07,1.71,1.168
			c1.48,0.27,2.859-1.197,3.306-2.031c0.846-1.582,0.545-3.953,0.594-6.223c0.023-1.068,0.279-2.268,0.377-3.48
			c0.25-3.137-0.098-7.889,0.146-10.955c1.459-0.178,3.28,0.105,4.045-0.998c0.21-0.309,0.312-0.947,0.392-1.486
			c0.23-1.592,0.071-3.256,0.198-5.108c0.304-4.326,1.111-8.317,1.021-12.808c-0.03-0.529-0.092-1.093-0.14-1.482
			C190.64,17.515,190.625,17.516,190.617,17.516z M171.078,6.973c0.06-0.648,0.014-1.26,0.229-1.779
			c0.111-0.268,0.407-0.624,0.64-0.967c0.231-0.343,0.423-0.772,0.64-1.043c0.678-0.853,1.977-1.522,2.985-1.657
			c0.866-0.116,1.872-0.161,2.751-0.175c0.025,0.001,0.056-0.002,0.082,0c1.091,0.124,1.666,0.817,2.363,1.382
			c0.412,0.339,0.894,0.591,1.141,0.952c0.213,0.312,0.406,0.87,0.578,1.328c0.17,0.451,0.363,1.021,0.42,1.475
			c0.275,2.291-0.41,3.757-1.661,4.753c-0.278,0.22-0.795,0.411-1.211,0.677c-0.404,0.259-0.748,0.608-1.128,0.75
			c-0.883,0.331-1.912,0.302-2.994,0.326c-0.238-0.101-0.113-0.542-0.411-0.588c-0.692,0.017-1.397-0.478-1.946-0.13
			c-0.471-0.547-0.998-0.559-1.385-0.946c-0.418-0.424-0.858-1.441-1.072-2.138C170.833,8.334,171.003,7.755,171.078,6.973z
			 M189.441,22.188c-0.144,2.221-0.598,4.733-0.749,7.039c-0.04,0.596-0.101,1.035-0.148,1.405
			c-0.312,2.313,0.265,5.451-0.669,7.259c-0.634,0.27-1.929,0.318-2.754,0.174c0.05-0.445,0.191-6.414-0.057-6.807
			c-0.112-0.173-0.089-8.123-0.074-8.361c-0.021-0.854,0.068-1.725-0.742-1.692c-0.584,0.02-0.607,0.694-0.557,1.335
			c0.103,1.293-0.016,2.361-0.053,3.258c-0.139,3.385,0.333,6.59,0.171,10.43c-0.195,4.617,0.058,9.242-0.13,13.695
			c-0.07,1.637-0.489,3.172-0.369,5.186c0.112,1.885-0.086,4.229-1.102,5.195c-0.111,0.105-0.246,0.205-0.353,0.275
			c-0.319,0.217-0.67,0.309-0.952,0.264c-0.375-0.059-0.831-0.277-1.156-0.666c-0.578-0.689-1.036-1.844-1.369-2.57
			c0,0-1.166-4.283-0.606-7.334c0,0-0.133-3.432-0.113-3.699c0.05-0.395,0.263-6.266,0.106-6.514s-0.422-0.232-0.491-0.512
			c0.056-0.748-0.153-1.34-0.899-1.176c-0.394,0.086-0.492,0.455-0.49,0.898c0.002,0.441,0.102,0.955,0.104,1.324
			c0.001,0.301-0.01,0.613-0.024,0.934c-0.046,0.912-0.146,1.896-0.188,2.912c-0.016,0.385-0.017,0.773-0.014,1.162
			c0.005,0.391,0.013,0.783,0.02,1.176c0.013,0.781,0.019,1.561-0.046,2.322c-0.106,1.281-0.303,2.406-0.453,3.768
			c-0.094,0.842-0.181,1.713-0.302,2.574c-0.251,1.775-0.323,3.621-1.256,4.637c-0.45,0.488-1.045,1.045-1.45,1.047
			c-0.323,0.004-0.646,0.006-0.973,0.008c-0.6-0.873-1.312-1.631-1.318-2.648c0.078,0.275-0.33-2.01-0.335-3.002
			c-0.001-0.141-0.464-1.451,0.126-2.469c0.574-2.992,0.17-5.242,0.426-6.887c0.318-1.326-0.324-6.885-0.144-7.25
			c0,0-0.06-1.516-0.105-1.924c0.003,0.002-0.06-1.602-0.062-1.848c-0.011-0.654,0.154-1.143,0.274-2.293
			c0.001-0.001,0.156-1.112,0.217-3.337c-0.008-0.57,0.455-4.104,0.53-4.371c-0.014-0.526,0.149-1.819,0.143-2.152
			c-0.118-0.821,0.999-1.868-0.509-1.553c-0.121,0.025-0.217,0.082-0.289,0.18c-0.22,0.292-0.27,0.847-0.354,1.435
			c-0.246,1.732-0.36,1.229-0.469,2.719c-0.159,2.211-0.582,4.74-0.688,7.276c-0.07,1.636,0.071,3.482-0.251,4.558h-0.002
			c-1.729,0.664-3.461-0.205-3.612-1.855c0.217-0.098-0.187-0.84,0.122-1.951c0.002-0.004-0.604-3.28-0.486-8.002
			c0.047-0.201-0.062-6.132,0.979-8.668c0.098-0.237,1.006-1.781,0.793-2.008c0.803-1.001,1.798-1.97,3.142-2.174
			c0.772-0.117,1.663-0.199,2.429-0.097c0.85,0.112,1.395,0.603,2.115,0.868c0.972,0.356,2.342,0.696,3.811,0.48
			c1.03-0.151,1.68-0.832,2.585-1.135c0.624-0.208,1.099-0.131,1.78-0.239c0.27-0.042,0.503-0.213,0.728-0.23
			c0.532-0.037,1.286,0.096,1.866,0.203c1.18,0.226,1.596,0.521,2.196,1.165c0.489,0.521,0.885,0.8,1.31,1.317
			C189.574,16.873,189.621,19.434,189.441,22.188z"/>
	</g>
	<g>
		<path fill="#B1B3B6" d="M179.712,17.79c-3.006-1.392-7.908,2.124-5.48,5.349c0.047,0.063,0.127,0.057,0.165,0.014
			c0.021,0.109,0.146,0.213,0.282,0.151c0.423-0.188,1.112-0.353,1.412-0.742c0.26-0.343,0.152-0.912,0.248-1.296
			c0.168-0.655,0.598-1.499,1.442-1.461c0.562,0.027,1.02,0.594,1.12,1.096c0.229,1.157-0.869,1.934-1.807,2.255
			c-0.089,0.031-0.147,0.105-0.151,0.201c-0.026,0.711-0.055,1.421-0.08,2.135c-0.017,0.407-0.196,1.188-0.027,1.564
			c0.269,0.598,1.368,0.214,1.901,0.148c0.115,0.056,0.297,0,0.312-0.171c0.053-0.624,0.011-1.357,0.166-1.962
			c0.174-0.676,0.715-0.81,1.188-1.21c0.645-0.547,1.108-1.312,1.287-2.14C182.033,20.136,181.185,18.472,179.712,17.79z"/>
		<path fill="#B1B3B6" d="M178.985,28.832c-0.009-0.187-0.058-0.338-0.245-0.41c-0.223-0.092-0.568-0.019-0.805-0.011
			c-0.354,0.014-0.743-0.018-1.08,0.102c-0.096,0.034-0.1,0.165,0,0.196c0.01,0.005,0.021,0.007,0.031,0.009
			c-0.239,0.362-0.2,0.886-0.131,1.294c0.014,0.086,0.117,0.156,0.201,0.152c0.605-0.023,1.204,0.003,1.806,0.083
			c0.109,0.015,0.202-0.106,0.204-0.203C178.972,29.643,179.002,29.232,178.985,28.832z"/>
	</g>
</g>
<path fill="#B1B3B6" stroke="#FFFFFF" stroke-width="1.2336" stroke-miterlimit="10" d="M419.662,27.218
	c0.979-12.454-17.275-16.798-23.369-7.473c-8.854-8.415-26.383-5.978-27.051,8.561c-0.576,12.515,12.936,22.951,23.457,27.033
	c1.287,0.496,2.398-0.627,2.395-1.645C405.51,48.014,418.658,40.004,419.662,27.218z M395.582,49.75
	c-0.619-0.383-1.613-0.279-2.605,0.77c0,0-0.473,0.502-0.969,1.025c-6.875-3.146-13.072-8.242-17.184-14.543
	c-8.693-13.309,8.74-25.608,19.635-14.572c0.266,0.27,0.555,0.378,0.844,0.422c0.146,0.367,0.426,0.661,0.748,0.867
	c0.758-0.429,1.551-0.803,2.359-1.118c3.045-6.183,12.732-6.011,16.676-0.824c3.826,5.029-0.191,11.922-3.486,15.85
	C407.336,42.711,401.439,46.467,395.582,49.75z"/>
<g>
	<g>
		<path fill="#B1B3B6" d="M232.121,30.839l2.472-0.089c2.978-0.112,6.056-0.228,9.078-0.228c2.819,0,5.295,0.102,7.562,0.309
			l0.102,0.005c0.311,0,1.479-0.283,1.518-1.13c0.018-0.407-0.255-0.872-0.894-0.929c-2.366-0.216-4.938-0.321-7.86-0.321
			c-3.1,0-6.238,0.117-9.274,0.23l-2.317,0.085c-0.404,0.014-1.417,0.388-1.403,1.187C231.11,30.382,231.432,30.839,232.121,30.839z
			"/>
		<path fill="#B1B3B6" d="M231.455,38.848h0.045c1.957-0.057,3.939-0.191,5.855-0.32c1.289-0.088,2.578-0.176,3.867-0.24
			c0.956-0.049,1.949-0.125,2.959-0.207c1.725-0.135,3.509-0.275,5.235-0.275c1.555,0,2.878,0.115,4.046,0.352
			c0.764,0.15,1.5-0.41,1.571-1.121c0.058-0.574-0.331-1.062-0.946-1.188c-1.236-0.25-2.624-0.373-4.242-0.373
			c-1.623,0-3.265,0.121-4.852,0.236c-0.914,0.068-1.812,0.135-2.683,0.174c-1.507,0.07-3.016,0.172-4.524,0.273
			c-2.057,0.139-4.182,0.281-6.266,0.34c-0.707,0.02-1.272,0.582-1.263,1.252C230.268,38.375,230.781,38.848,231.455,38.848z"/>
		<path fill="#B1B3B6" d="M255.314,43.047c-1.855-0.391-3.956-0.572-6.611-0.572c-1.305,0-2.615,0.043-3.884,0.082
			c-0.763,0.025-1.52,0.049-2.265,0.062c-3.57,0.072-7.236,0.205-10.896,0.396c-0.313,0.018-1.412,0.342-1.39,1.178
			c0.011,0.412,0.325,0.857,0.99,0.857l0.104-0.002c2.768-0.146,5.752-0.262,9.124-0.354c0.864-0.025,1.745-0.062,2.636-0.1
			c1.555-0.062,3.162-0.131,4.744-0.131c2.552,0,4.578,0.176,6.378,0.555l0.214,0.021c0.19,0,1.475-0.197,1.562-1.062l0.018-0.779
			L255.314,43.047z"/>
	</g>
	<path fill="#B1B3B6" d="M231.93,15.781c-0.021,1.49-0.417,4.385,2.108,4.572c2.331,0.173,2.075-2.985,2.029-4.204
		c-0.044-1.167,0.128-4.053-1.922-4.133C231.506,11.912,231.904,14.296,231.93,15.781z"/>
	<path fill="#B1B3B6" d="M249.246,15.781c-0.021,1.49-0.417,4.385,2.108,4.572c2.331,0.173,2.075-2.985,2.029-4.204
		c-0.044-1.167,0.127-4.053-1.922-4.133C248.822,11.912,249.221,14.296,249.246,15.781z"/>
	<path fill="#B1B3B6" d="M258.816,15.952V15.95c-0.012-0.027-0.027-0.05-0.042-0.074c-0.099-0.203-0.288-0.36-0.585-0.358
		c-10.342,0.088-20.691,0.539-31.042,0.382c-0.313-0.005-0.511,0.167-0.604,0.388c-0.005,0.009-0.01,0.016-0.015,0.024
		c-0.008,0.021-0.011,0.043-0.017,0.064c-0.026,0.067-0.053,0.134-0.058,0.216c-0.455,7.263,0.277,7.254,0.125,14.526
		c-0.16,7.732-0.604,15.451-0.367,23.187c0.004,0.135,0.046,0.242,0.104,0.336c0.098,0.207,0.289,0.363,0.589,0.355
		c14.362-0.365,27.118-0.156,32.591-0.307c0.12-0.004,0.221-0.035,0.309-0.08c0.227-0.09,0.399-0.291,0.384-0.611
		c-0.714-15.012-0.596-22.781-1.306-37.788C258.878,16.112,258.851,16.028,258.816,15.952z M243.104,53.385
		c-5.177,0.275-10.342,0.107-15.52,0.215c-0.189-7.5,0.227-14.986,0.382-22.482c0.147-7.04-0.524-6.797-0.156-13.828
		c9.907,0.125,19.815-0.28,29.716-0.378c0.664,14.548,0.582,21.854,1.25,36.405C253.545,53.42,248.336,53.108,243.104,53.385z"/>
</g>
<g>
	<path fill="#B1B3B6" d="M111.575,42.801c0.003-0.008,0.007-0.014,0.01-0.02c-0.059-0.162-0.11-0.311-0.152-0.441
		C111.472,42.495,111.519,42.647,111.575,42.801z"/>
	<path fill="#B1B3B6" d="M128.674,50.932c-2.752-3.592-5.712-7.242-8.817-10.533c-1.58-1.674-3.312-4.088-5.858-3.836
		c-1.354-1.479-2.483-3.146-3.807-4.65c1.807-1.988,3.185-4.36,3.909-6.952c2.033-7.272-2.005-13.441-8.554-16.539
		c-6.6-3.123-15.051-1.942-19.768,3.985c-4.089,4.634-5.421,11.807-2.316,17.328c3.13,5.568,9.709,8.849,16.037,7.957
		c1.95-0.273,3.832-0.91,5.575-1.822c1.355,1.576,2.705,3.18,4.222,4.604c-0.524,2.201,1.539,4.812,2.616,6.541
		c2.36,3.787,5.38,7.111,8.133,10.607c1.303,1.57,3.085,4.203,5.412,4.158c1.801-0.037,4.897-2.213,5.552-3.893
		C131.94,55.504,130.03,52.7,128.674,50.932z M88.063,32.566c-5.773-5.005-5.83-13.459-0.875-19.075
		c4.951-6.223,13.934-6.231,20.123-2.041c7.602,5.146,6.766,14.831,0.278,20.559C102.063,36.883,93.771,37.512,88.063,32.566z
		 M110.162,38.846c-1.256-1.211-2.394-2.555-3.53-3.883c0.815-0.535,1.583-1.141,2.304-1.797c1.123,1.303,2.114,2.713,3.239,4.012
		C111.417,37.596,110.702,38.18,110.162,38.846z M128.987,57.137c-0.427,1.062-1.297,1.828-2.347,2.309l-0.013,0.094
		c-2.723,1.137-4.268-1.912-5.65-3.537c-1.382-1.625-4.064-5.041-6.666-8.414c-1.535-1.988-2.33-3.719-2.727-4.807
		c-0.003,0.006-0.007,0.012-0.01,0.02c-0.056-0.154-0.103-0.307-0.143-0.461c-0.157-0.488-0.209-0.768-0.209-0.768l0.089-0.172
		c0.006-0.717,0.265-1.42,0.937-2.076c2.533-2.473,5.359,1.184,6.944,2.973c2.975,3.355,6.233,6.887,8.733,10.611
		C128.889,54.344,129.648,55.497,128.987,57.137z"/>
	<path fill="#B1B3B6" d="M107.896,14.457c-4.705-4.743-12.526-6.001-17.87-1.729c-5.028,4.346-6.777,13.24-1.659,18.219
		c4.893,4.76,13.107,3.958,18.191-0.036C112.204,26.479,113.107,19.708,107.896,14.457z M105.758,29.847
		c-4.341,3.408-11.259,4.384-15.79,0.747c-5.239-4.205-3.821-12.755,0.859-16.801c4.357-3.482,10.472-2.884,14.807,0.44
		c2.32,1.78,4.481,4.677,4.587,7.716C110.334,25.204,108.188,27.938,105.758,29.847z"/>
</g>
<g>
	<path fill="#B1B3B6" d="M17.928,30.083c-0.967-0.975-2.575-1.232-3.674-0.355c-1.033,0.894-1.393,2.722-0.341,3.746
		c1.006,0.979,2.694,0.812,3.739-0.008C18.813,32.554,18.999,31.162,17.928,30.083z"/>
	<path fill="#B1B3B6" d="M34.417,30.083c0.967-0.975,2.575-1.232,3.673-0.355c1.034,0.894,1.393,2.722,0.341,3.746
		c-1.006,0.979-2.694,0.812-3.739-0.008C33.531,32.554,33.346,31.162,34.417,30.083z"/>
	<path fill="#B1B3B6" d="M23.709,29.626c-0.639,1.215-0.4,2.826,0.768,3.609c1.163,0.717,3.014,0.508,3.674-0.803
		c0.629-1.254-0.037-2.813-1.134-3.562C25.798,28.037,24.415,28.279,23.709,29.626z"/>
	<path fill="#B1B3B6" d="M0.001,30.649c-0.2,18.681,29.546,33.572,41.508,16.841c3.854,4.414,9.724,6.297,15.479,4.738
		c0.533-0.145,0.692-0.967,0.162-1.23c-4.379-2.15-7.464-5.783-8.827-10.48c-0.055-0.189-0.167-0.312-0.301-0.387
		c4.977-7.908,4.163-18.771-2.234-25.742C39.098,7.1,25.836,3.912,16.708,7.938c-4.621,2.038-8.396,6.025-11.464,9.938
		C2.354,21.562,0.051,25.859,0.001,30.649z M1.475,31.125c-0.133-6.158,3.769-11.387,7.793-15.66
		c4.433-4.707,9.4-7.794,16.049-7.784c6.12,0.012,12.789,1.894,17.576,5.808c7.875,6.439,9.27,18.577,3.889,27.008
		c-0.193,0.301,0.05,0.57,0.325,0.6c1.305,4.318,4,7.854,7.777,10.186c-4.887,0.688-9.784-1.221-12.845-5.252
		c-0.312-0.408-0.87-0.459-1.171,0c-7.472,11.35-22.909,7.715-31.529-0.057C5.143,42.19,1.602,36.952,1.475,31.125z"/>
</g>
<g>
	<path fill="#034EA2" d="M314.369,25.831c0.248,4.577,0.746,9.128,1.439,13.658c0.029,0.182,0.24,0.307,0.406,0.311
		c0.832,0.014,1.66,0.025,2.492,0.02c0.254,0,0.381-0.189,0.389-0.385c0.148,0.092,0.395,0.055,0.439-0.148
		c1.043-4.902,1.707-9.902,2.502-14.85c0.131-0.821,0.779-2.403,0.086-3.117c-0.738-0.76-3.24-0.445-4.205-0.523
		c-0.867-0.069-2.902-0.697-3.561,0.171C313.658,21.89,314.312,24.79,314.369,25.831z"/>
	<path fill="#034EA2" d="M315.457,45.469c-0.02,0.227,0.207,0.418,0.418,0.418c1.098,0.002,2.195,0.004,3.293,0.004
		c0.303,0,0.449-0.27,0.41-0.537c-0.148-0.986-0.301-1.973-0.453-2.961c0.133-0.131,0.105-0.43-0.115-0.488
		c-0.018-0.004-0.035-0.006-0.053-0.012c-0.088-0.07-0.201-0.094-0.316-0.068c-0.814-0.172-1.65-0.221-2.482-0.18
		c-0.236,0.01-0.379,0.176-0.402,0.402C315.639,43.186,315.555,44.329,315.457,45.469z"/>
	<g>
		<path fill="#034EA2" d="M336.83,12.384L336.83,12.384c-0.016-0.034-0.033-0.062-0.053-0.091c-0.119-0.247-0.348-0.438-0.709-0.436
			c-12.561,0.106-25.129,0.654-37.699,0.463c-0.379-0.006-0.619,0.203-0.732,0.472c-0.006,0.01-0.012,0.019-0.016,0.029
			c-0.012,0.026-0.016,0.053-0.021,0.078c-0.031,0.082-0.064,0.162-0.07,0.262c-0.553,8.821,0.336,3.892,0.152,12.724
			c-0.195,9.389-0.732,18.762-0.447,28.157c0.006,0.166,0.057,0.295,0.127,0.41c0.119,0.25,0.35,0.439,0.715,0.432
			c6.564-0.166,13.111,0.088,19.672-0.275c6.645-0.365,13.262,0.086,19.906-0.098c0.146-0.004,0.268-0.041,0.375-0.098
			c0.275-0.107,0.484-0.352,0.467-0.744c-0.867-18.229-0.723-22.745-1.586-40.97C336.904,12.578,336.871,12.479,336.83,12.384z
			 M317.748,52.926c-6.287,0.334-12.561,0.131-18.85,0.26c-0.229-9.107,0.275-18.197,0.465-27.301
			c0.178-8.55-0.637-3.336-0.189-11.875c12.031,0.151,24.064-0.34,36.088-0.46c0.807,17.668,0.707,21.623,1.518,39.292
			C330.428,52.967,324.102,52.588,317.748,52.926z"/>
	</g>
</g>
<g>
	<g>
		<path fill="#B1B3B6" d="M190.617,17.516c-0.221-1.98-1.502-3.232-2.713-4.488c-1.08-1.122-2.708-1.479-4.878-1.729
			c0.056-0.34,0.384-0.65,0.639-1.116c0.206-0.373,0.489-0.823,0.557-1.262c0.255-1.625-0.081-3.16-0.522-4.29
			c-0.518-1.327-0.835-1.919-1.888-2.793c-0.489-0.407-1.062-0.883-1.468-1.094c-1.258-0.664-3.465-0.917-4.869-0.62
			c-0.857,0.18-2.921,1.154-3.549,1.661c-0.975,0.783-1.637,2.077-2.076,3.571c-0.061,0.208-0.225,0.471-0.238,0.595
			c-0.045,0.383,0.109,0.866,0.092,1.331c-0.016,0.442-0.115,0.869-0.07,1.26c0.123,1.077,0.707,2.066,1.161,3.096
			c-2.05-0.167-3.632,0.728-4.683,1.748c-1.699,1.646-2.571,5.127-2.93,8.169c-0.162,1.388,0.026,2.896,0.04,4.364
			c0.013,1.491,0.169,2.89,0.278,4.215c0.104,1.262,0.043,2.624,0.115,3.85c0.051,0.9-0.131,1.797,0.021,2.516
			c0.202,0.941,1.271,1.867,1.881,2.127c0.823,0.342,2.023,0.352,3.083,0.338c0.168,2.93,0.392,6.502,0.244,9.545
			c-0.086,1.801-0.475,3.623-0.602,5.557c-0.071,1.133,0.01,2.42,0.113,3.625c0.08,0.908,0.428,1.961,0.836,2.803
			c0.599,1.24,1.506,2.516,3.58,1.891c0.477-0.143,0.852-0.605,1.289-0.973c0.409-0.348,0.89-0.67,1.126-1.049
			c0.485-0.779,0.71-1.934,0.864-2.969c0.168-1.123,0.334-2.287,0.46-3.334c0.296,1.445,0.443,2.605,1.003,3.912
			c0.119,0.277,0.304,0.527,0.414,0.811c0.293,0.748,0.599,1.605,1.072,2.137c0.354,0.396,1.186,1.07,1.71,1.168
			c1.48,0.27,2.859-1.197,3.306-2.031c0.846-1.582,0.545-3.953,0.594-6.223c0.023-1.068,0.279-2.268,0.377-3.48
			c0.25-3.137-0.098-7.889,0.146-10.955c1.459-0.178,3.28,0.105,4.045-0.998c0.21-0.309,0.312-0.947,0.392-1.486
			c0.23-1.592,0.071-3.256,0.198-5.108c0.304-4.326,1.111-8.317,1.021-12.808c-0.03-0.529-0.092-1.093-0.14-1.482
			C190.64,17.515,190.625,17.516,190.617,17.516z M171.078,6.973c0.06-0.648,0.014-1.26,0.229-1.779
			c0.111-0.268,0.407-0.624,0.64-0.967c0.231-0.343,0.423-0.772,0.64-1.043c0.678-0.853,1.977-1.522,2.985-1.657
			c0.866-0.116,1.872-0.161,2.751-0.175c0.025,0.001,0.056-0.002,0.082,0c1.091,0.124,1.666,0.817,2.363,1.382
			c0.412,0.339,0.894,0.591,1.141,0.952c0.213,0.312,0.406,0.87,0.578,1.328c0.17,0.451,0.363,1.021,0.42,1.475
			c0.275,2.291-0.41,3.757-1.661,4.753c-0.278,0.22-0.795,0.411-1.211,0.677c-0.404,0.259-0.748,0.608-1.128,0.75
			c-0.883,0.331-1.912,0.302-2.994,0.326c-0.238-0.101-0.113-0.542-0.411-0.588c-0.692,0.017-1.397-0.478-1.946-0.13
			c-0.471-0.547-0.998-0.559-1.385-0.946c-0.418-0.424-0.858-1.441-1.072-2.138C170.833,8.334,171.003,7.755,171.078,6.973z
			 M189.441,22.188c-0.144,2.221-0.598,4.733-0.749,7.039c-0.04,0.596-0.101,1.035-0.148,1.405
			c-0.312,2.313,0.265,5.451-0.669,7.259c-0.634,0.27-1.929,0.318-2.754,0.174c0.05-0.445,0.191-6.414-0.057-6.807
			c-0.112-0.173-0.089-8.123-0.074-8.361c-0.021-0.854,0.068-1.725-0.742-1.692c-0.584,0.02-0.607,0.694-0.557,1.335
			c0.103,1.293-0.016,2.361-0.053,3.258c-0.139,3.385,0.333,6.59,0.171,10.43c-0.195,4.617,0.058,9.242-0.13,13.695
			c-0.07,1.637-0.489,3.172-0.369,5.186c0.112,1.885-0.086,4.229-1.102,5.195c-0.111,0.105-0.246,0.205-0.353,0.275
			c-0.319,0.217-0.67,0.309-0.952,0.264c-0.375-0.059-0.831-0.277-1.156-0.666c-0.578-0.689-1.036-1.844-1.369-2.57
			c0,0-1.166-4.283-0.606-7.334c0,0-0.133-3.432-0.113-3.699c0.05-0.395,0.263-6.266,0.106-6.514s-0.422-0.232-0.491-0.512
			c0.056-0.748-0.153-1.34-0.899-1.176c-0.394,0.086-0.492,0.455-0.49,0.898c0.002,0.441,0.102,0.955,0.104,1.324
			c0.001,0.301-0.01,0.613-0.024,0.934c-0.046,0.912-0.146,1.896-0.188,2.912c-0.016,0.385-0.017,0.773-0.014,1.162
			c0.005,0.391,0.013,0.783,0.02,1.176c0.013,0.781,0.019,1.561-0.046,2.322c-0.106,1.281-0.303,2.406-0.453,3.768
			c-0.094,0.842-0.181,1.713-0.302,2.574c-0.251,1.775-0.323,3.621-1.256,4.637c-0.45,0.488-1.045,1.045-1.45,1.047
			c-0.323,0.004-0.646,0.006-0.973,0.008c-0.6-0.873-1.312-1.631-1.318-2.648c0.078,0.275-0.33-2.01-0.335-3.002
			c-0.001-0.141-0.464-1.451,0.126-2.469c0.574-2.992,0.17-5.242,0.426-6.887c0.318-1.326-0.324-6.885-0.144-7.25
			c0,0-0.06-1.516-0.105-1.924c0.003,0.002-0.06-1.602-0.062-1.848c-0.011-0.654,0.154-1.143,0.274-2.293
			c0.001-0.001,0.156-1.112,0.217-3.337c-0.008-0.57,0.455-4.104,0.53-4.371c-0.014-0.526,0.149-1.819,0.143-2.152
			c-0.118-0.821,0.999-1.868-0.509-1.553c-0.121,0.025-0.217,0.082-0.289,0.18c-0.22,0.292-0.27,0.847-0.354,1.435
			c-0.246,1.732-0.36,1.229-0.469,2.719c-0.159,2.211-0.582,4.74-0.688,7.276c-0.07,1.636,0.071,3.482-0.251,4.558h-0.002
			c-1.729,0.664-3.461-0.205-3.612-1.855c0.217-0.098-0.187-0.84,0.122-1.951c0.002-0.004-0.604-3.28-0.486-8.002
			c0.047-0.201-0.062-6.132,0.979-8.668c0.098-0.237,1.006-1.781,0.793-2.008c0.803-1.001,1.798-1.97,3.142-2.174
			c0.772-0.117,1.663-0.199,2.429-0.097c0.85,0.112,1.395,0.603,2.115,0.868c0.972,0.356,2.342,0.696,3.811,0.48
			c1.03-0.151,1.68-0.832,2.585-1.135c0.624-0.208,1.099-0.131,1.78-0.239c0.27-0.042,0.503-0.213,0.728-0.23
			c0.532-0.037,1.286,0.096,1.866,0.203c1.18,0.226,1.596,0.521,2.196,1.165c0.489,0.521,0.885,0.8,1.31,1.317
			C189.574,16.873,189.621,19.434,189.441,22.188z"/>
	</g>
	<g>
		<path fill="#B1B3B6" d="M179.712,17.79c-3.006-1.392-7.908,2.124-5.48,5.349c0.047,0.063,0.127,0.057,0.165,0.014
			c0.021,0.109,0.146,0.213,0.282,0.151c0.423-0.188,1.112-0.353,1.412-0.742c0.26-0.343,0.152-0.912,0.248-1.296
			c0.168-0.655,0.598-1.499,1.442-1.461c0.562,0.027,1.02,0.594,1.12,1.096c0.229,1.157-0.869,1.934-1.807,2.255
			c-0.089,0.031-0.147,0.105-0.151,0.201c-0.026,0.711-0.055,1.421-0.08,2.135c-0.017,0.407-0.196,1.188-0.027,1.564
			c0.269,0.598,1.368,0.214,1.901,0.148c0.115,0.056,0.297,0,0.312-0.171c0.053-0.624,0.011-1.357,0.166-1.962
			c0.174-0.676,0.715-0.81,1.188-1.21c0.645-0.547,1.108-1.312,1.287-2.14C182.033,20.136,181.185,18.472,179.712,17.79z"/>
		<path fill="#B1B3B6" d="M178.985,28.832c-0.009-0.187-0.058-0.338-0.245-0.41c-0.223-0.092-0.568-0.019-0.805-0.011
			c-0.354,0.014-0.743-0.018-1.08,0.102c-0.096,0.034-0.1,0.165,0,0.196c0.01,0.005,0.021,0.007,0.031,0.009
			c-0.239,0.362-0.2,0.886-0.131,1.294c0.014,0.086,0.117,0.156,0.201,0.152c0.605-0.023,1.204,0.003,1.806,0.083
			c0.109,0.015,0.202-0.106,0.204-0.203C178.972,29.643,179.002,29.232,178.985,28.832z"/>
	</g>
</g>
<path fill="#B1B3B6" stroke="#FFFFFF" stroke-width="1.2336" stroke-miterlimit="10" d="M419.662,27.218
	c0.979-12.454-17.275-16.798-23.369-7.473c-8.854-8.415-26.383-5.978-27.051,8.561c-0.576,12.515,12.936,22.951,23.457,27.033
	c1.287,0.496,2.398-0.627,2.395-1.645C405.51,48.014,418.658,40.004,419.662,27.218z M395.582,49.75
	c-0.619-0.383-1.613-0.279-2.605,0.77c0,0-0.473,0.502-0.969,1.025c-6.875-3.146-13.072-8.242-17.184-14.543
	c-8.693-13.309,8.74-25.608,19.635-14.572c0.266,0.27,0.555,0.378,0.844,0.422c0.146,0.367,0.426,0.661,0.748,0.867
	c0.758-0.429,1.551-0.803,2.359-1.118c3.045-6.183,12.732-6.011,16.676-0.824c3.826,5.029-0.191,11.922-3.486,15.85
	C407.336,42.711,401.439,46.467,395.582,49.75z"/>
<g>
	<g>
		<path fill="#B1B3B6" d="M232.121,30.839l2.472-0.089c2.978-0.112,6.056-0.228,9.078-0.228c2.819,0,5.295,0.102,7.562,0.309
			l0.102,0.005c0.311,0,1.479-0.283,1.518-1.13c0.018-0.407-0.255-0.872-0.894-0.929c-2.366-0.216-4.938-0.321-7.86-0.321
			c-3.1,0-6.238,0.117-9.274,0.23l-2.317,0.085c-0.404,0.014-1.417,0.388-1.403,1.187C231.11,30.382,231.432,30.839,232.121,30.839z
			"/>
		<path fill="#B1B3B6" d="M231.455,38.848h0.045c1.957-0.057,3.939-0.191,5.855-0.32c1.289-0.088,2.578-0.176,3.867-0.24
			c0.956-0.049,1.949-0.125,2.959-0.207c1.725-0.135,3.509-0.275,5.235-0.275c1.555,0,2.878,0.115,4.046,0.352
			c0.764,0.15,1.5-0.41,1.571-1.121c0.058-0.574-0.331-1.062-0.946-1.188c-1.236-0.25-2.624-0.373-4.242-0.373
			c-1.623,0-3.265,0.121-4.852,0.236c-0.914,0.068-1.812,0.135-2.683,0.174c-1.507,0.07-3.016,0.172-4.524,0.273
			c-2.057,0.139-4.182,0.281-6.266,0.34c-0.707,0.02-1.272,0.582-1.263,1.252C230.268,38.375,230.781,38.848,231.455,38.848z"/>
		<path fill="#B1B3B6" d="M255.314,43.047c-1.855-0.391-3.956-0.572-6.611-0.572c-1.305,0-2.615,0.043-3.884,0.082
			c-0.763,0.025-1.52,0.049-2.265,0.062c-3.57,0.072-7.236,0.205-10.896,0.396c-0.313,0.018-1.412,0.342-1.39,1.178
			c0.011,0.412,0.325,0.857,0.99,0.857l0.104-0.002c2.768-0.146,5.752-0.262,9.124-0.354c0.864-0.025,1.745-0.062,2.636-0.1
			c1.555-0.062,3.162-0.131,4.744-0.131c2.552,0,4.578,0.176,6.378,0.555l0.214,0.021c0.19,0,1.475-0.197,1.562-1.062l0.018-0.779
			L255.314,43.047z"/>
	</g>
	<path fill="#B1B3B6" d="M231.93,15.781c-0.021,1.49-0.417,4.385,2.108,4.572c2.331,0.173,2.075-2.985,2.029-4.204
		c-0.044-1.167,0.128-4.053-1.922-4.133C231.506,11.912,231.904,14.296,231.93,15.781z"/>
	<path fill="#B1B3B6" d="M249.246,15.781c-0.021,1.49-0.417,4.385,2.108,4.572c2.331,0.173,2.075-2.985,2.029-4.204
		c-0.044-1.167,0.127-4.053-1.922-4.133C248.822,11.912,249.221,14.296,249.246,15.781z"/>
	<path fill="#B1B3B6" d="M258.816,15.952V15.95c-0.012-0.027-0.027-0.05-0.042-0.074c-0.099-0.203-0.288-0.36-0.585-0.358
		c-10.342,0.088-20.691,0.539-31.042,0.382c-0.313-0.005-0.511,0.167-0.604,0.388c-0.005,0.009-0.01,0.016-0.015,0.024
		c-0.008,0.021-0.011,0.043-0.017,0.064c-0.026,0.067-0.053,0.134-0.058,0.216c-0.455,7.263,0.277,7.254,0.125,14.526
		c-0.16,7.732-0.604,15.451-0.367,23.187c0.004,0.135,0.046,0.242,0.104,0.336c0.098,0.207,0.289,0.363,0.589,0.355
		c14.362-0.365,27.118-0.156,32.591-0.307c0.12-0.004,0.221-0.035,0.309-0.08c0.227-0.09,0.399-0.291,0.384-0.611
		c-0.714-15.012-0.596-22.781-1.306-37.788C258.878,16.112,258.851,16.028,258.816,15.952z M243.104,53.385
		c-5.177,0.275-10.342,0.107-15.52,0.215c-0.189-7.5,0.227-14.986,0.382-22.482c0.147-7.04-0.524-6.797-0.156-13.828
		c9.907,0.125,19.815-0.28,29.716-0.378c0.664,14.548,0.582,21.854,1.25,36.405C253.545,53.42,248.336,53.108,243.104,53.385z"/>
</g>
<g>
	<path fill="#B1B3B6" d="M111.575,42.801c0.003-0.008,0.007-0.014,0.01-0.02c-0.059-0.162-0.11-0.311-0.152-0.441
		C111.472,42.495,111.519,42.647,111.575,42.801z"/>
	<path fill="#B1B3B6" d="M128.674,50.932c-2.752-3.592-5.712-7.242-8.817-10.533c-1.58-1.674-3.312-4.088-5.858-3.836
		c-1.354-1.479-2.483-3.146-3.807-4.65c1.807-1.988,3.185-4.36,3.909-6.952c2.033-7.272-2.005-13.441-8.554-16.539
		c-6.6-3.123-15.051-1.942-19.768,3.985c-4.089,4.634-5.421,11.807-2.316,17.328c3.13,5.568,9.709,8.849,16.037,7.957
		c1.95-0.273,3.832-0.91,5.575-1.822c1.355,1.576,2.705,3.18,4.222,4.604c-0.524,2.201,1.539,4.812,2.616,6.541
		c2.36,3.787,5.38,7.111,8.133,10.607c1.303,1.57,3.085,4.203,5.412,4.158c1.801-0.037,4.897-2.213,5.552-3.893
		C131.94,55.504,130.03,52.7,128.674,50.932z M88.063,32.566c-5.773-5.005-5.83-13.459-0.875-19.075
		c4.951-6.223,13.934-6.231,20.123-2.041c7.602,5.146,6.766,14.831,0.278,20.559C102.063,36.883,93.771,37.512,88.063,32.566z
		 M110.162,38.846c-1.256-1.211-2.394-2.555-3.53-3.883c0.815-0.535,1.583-1.141,2.304-1.797c1.123,1.303,2.114,2.713,3.239,4.012
		C111.417,37.596,110.702,38.18,110.162,38.846z M128.987,57.137c-0.427,1.062-1.297,1.828-2.347,2.309l-0.013,0.094
		c-2.723,1.137-4.268-1.912-5.65-3.537c-1.382-1.625-4.064-5.041-6.666-8.414c-1.535-1.988-2.33-3.719-2.727-4.807
		c-0.003,0.006-0.007,0.012-0.01,0.02c-0.056-0.154-0.103-0.307-0.143-0.461c-0.157-0.488-0.209-0.768-0.209-0.768l0.089-0.172
		c0.006-0.717,0.265-1.42,0.937-2.076c2.533-2.473,5.359,1.184,6.944,2.973c2.975,3.355,6.233,6.887,8.733,10.611
		C128.889,54.344,129.648,55.497,128.987,57.137z"/>
	<path fill="#B1B3B6" d="M107.896,14.457c-4.705-4.743-12.526-6.001-17.87-1.729c-5.028,4.346-6.777,13.24-1.659,18.219
		c4.893,4.76,13.107,3.958,18.191-0.036C112.204,26.479,113.107,19.708,107.896,14.457z M105.758,29.847
		c-4.341,3.408-11.259,4.384-15.79,0.747c-5.239-4.205-3.821-12.755,0.859-16.801c4.357-3.482,10.472-2.884,14.807,0.44
		c2.32,1.78,4.481,4.677,4.587,7.716C110.334,25.204,108.188,27.938,105.758,29.847z"/>
</g>
<g>
	<path fill="#B1B3B6" d="M17.928,30.083c-0.967-0.975-2.575-1.232-3.674-0.355c-1.033,0.894-1.393,2.722-0.341,3.746
		c1.006,0.979,2.694,0.812,3.739-0.008C18.813,32.554,18.999,31.162,17.928,30.083z"/>
	<path fill="#B1B3B6" d="M34.417,30.083c0.967-0.975,2.575-1.232,3.673-0.355c1.034,0.894,1.393,2.722,0.341,3.746
		c-1.006,0.979-2.694,0.812-3.739-0.008C33.531,32.554,33.346,31.162,34.417,30.083z"/>
	<path fill="#B1B3B6" d="M23.709,29.626c-0.639,1.215-0.4,2.826,0.768,3.609c1.163,0.717,3.014,0.508,3.674-0.803
		c0.629-1.254-0.037-2.813-1.134-3.562C25.798,28.037,24.415,28.279,23.709,29.626z"/>
	<path fill="#B1B3B6" d="M0.001,30.649c-0.2,18.681,29.546,33.572,41.508,16.841c3.854,4.414,9.724,6.297,15.479,4.738
		c0.533-0.145,0.692-0.967,0.162-1.23c-4.379-2.15-7.464-5.783-8.827-10.48c-0.055-0.189-0.167-0.312-0.301-0.387
		c4.977-7.908,4.163-18.771-2.234-25.742C39.098,7.1,25.836,3.912,16.708,7.938c-4.621,2.038-8.396,6.025-11.464,9.938
		C2.354,21.562,0.051,25.859,0.001,30.649z M1.475,31.125c-0.133-6.158,3.769-11.387,7.793-15.66
		c4.433-4.707,9.4-7.794,16.049-7.784c6.12,0.012,12.789,1.894,17.576,5.808c7.875,6.439,9.27,18.577,3.889,27.008
		c-0.193,0.301,0.05,0.57,0.325,0.6c1.305,4.318,4,7.854,7.777,10.186c-4.887,0.688-9.784-1.221-12.845-5.252
		c-0.312-0.408-0.87-0.459-1.171,0c-7.472,11.35-22.909,7.715-31.529-0.057C5.143,42.19,1.602,36.952,1.475,31.125z"/>
</g>
<g>
	<path fill="#B1B3B6" d="M314.369,25.831c0.248,4.577,0.746,9.128,1.439,13.658c0.029,0.182,0.24,0.307,0.406,0.311
		c0.832,0.014,1.66,0.025,2.492,0.02c0.254,0,0.381-0.189,0.389-0.385c0.148,0.092,0.395,0.055,0.439-0.148
		c1.043-4.902,1.707-9.902,2.502-14.85c0.131-0.821,0.779-2.403,0.086-3.117c-0.738-0.76-3.24-0.445-4.205-0.523
		c-0.867-0.069-2.902-0.697-3.561,0.171C313.658,21.89,314.312,24.79,314.369,25.831z"/>
	<path fill="#B1B3B6" d="M315.457,45.469c-0.02,0.227,0.207,0.418,0.418,0.418c1.098,0.002,2.195,0.004,3.293,0.004
		c0.303,0,0.449-0.27,0.41-0.537c-0.148-0.986-0.301-1.973-0.453-2.961c0.133-0.131,0.105-0.43-0.115-0.488
		c-0.018-0.004-0.035-0.006-0.053-0.012c-0.088-0.07-0.201-0.094-0.316-0.068c-0.814-0.172-1.65-0.221-2.482-0.18
		c-0.236,0.01-0.379,0.176-0.402,0.402C315.639,43.186,315.555,44.329,315.457,45.469z"/>
	<g>
		<path fill="#B1B3B6" d="M336.83,12.384L336.83,12.384c-0.016-0.034-0.033-0.062-0.053-0.091c-0.119-0.247-0.348-0.438-0.709-0.436
			c-12.561,0.106-25.129,0.654-37.699,0.463c-0.379-0.006-0.619,0.203-0.732,0.472c-0.006,0.01-0.012,0.019-0.016,0.029
			c-0.012,0.026-0.016,0.053-0.021,0.078c-0.031,0.082-0.064,0.162-0.07,0.262c-0.553,8.821,0.336,3.892,0.152,12.724
			c-0.195,9.389-0.732,18.762-0.447,28.157c0.006,0.166,0.057,0.295,0.127,0.41c0.119,0.25,0.35,0.439,0.715,0.432
			c6.564-0.166,13.111,0.088,19.672-0.275c6.645-0.365,13.262,0.086,19.906-0.098c0.146-0.004,0.268-0.041,0.375-0.098
			c0.275-0.107,0.484-0.352,0.467-0.744c-0.867-18.229-0.723-22.745-1.586-40.97C336.904,12.578,336.871,12.479,336.83,12.384z
			 M317.748,52.926c-6.287,0.334-12.561,0.131-18.85,0.26c-0.229-9.107,0.275-18.197,0.465-27.301
			c0.178-8.55-0.637-3.336-0.189-11.875c12.031,0.151,24.064-0.34,36.088-0.46c0.807,17.668,0.707,21.623,1.518,39.292
			C330.428,52.967,324.102,52.588,317.748,52.926z"/>
	</g>
</g>
<g>
	<g>
		<path fill="#B1B3B6" d="M190.617,17.516c-0.221-1.98-1.502-3.232-2.713-4.488c-1.08-1.122-2.708-1.479-4.878-1.729
			c0.056-0.34,0.384-0.65,0.639-1.116c0.206-0.373,0.489-0.823,0.557-1.262c0.255-1.625-0.081-3.16-0.522-4.29
			c-0.518-1.327-0.835-1.919-1.888-2.793c-0.489-0.407-1.062-0.883-1.468-1.094c-1.258-0.664-3.465-0.917-4.869-0.62
			c-0.857,0.18-2.921,1.154-3.549,1.661c-0.975,0.783-1.637,2.077-2.076,3.571c-0.061,0.208-0.225,0.471-0.238,0.595
			c-0.045,0.383,0.109,0.866,0.092,1.331c-0.016,0.442-0.115,0.869-0.07,1.26c0.123,1.077,0.707,2.066,1.161,3.096
			c-2.05-0.167-3.632,0.728-4.683,1.748c-1.699,1.646-2.571,5.127-2.93,8.169c-0.162,1.388,0.026,2.896,0.04,4.364
			c0.013,1.491,0.169,2.89,0.278,4.215c0.104,1.262,0.043,2.624,0.115,3.85c0.051,0.9-0.131,1.797,0.021,2.516
			c0.202,0.941,1.271,1.867,1.881,2.127c0.823,0.342,2.023,0.352,3.083,0.338c0.168,2.93,0.392,6.502,0.244,9.545
			c-0.086,1.801-0.475,3.623-0.602,5.557c-0.071,1.133,0.01,2.42,0.113,3.625c0.08,0.908,0.428,1.961,0.836,2.803
			c0.599,1.24,1.506,2.516,3.58,1.891c0.477-0.143,0.852-0.605,1.289-0.973c0.409-0.348,0.89-0.67,1.126-1.049
			c0.485-0.779,0.71-1.934,0.864-2.969c0.168-1.123,0.334-2.287,0.46-3.334c0.296,1.445,0.443,2.605,1.003,3.912
			c0.119,0.277,0.304,0.527,0.414,0.811c0.293,0.748,0.599,1.605,1.072,2.137c0.354,0.396,1.186,1.07,1.71,1.168
			c1.48,0.27,2.859-1.197,3.306-2.031c0.846-1.582,0.545-3.953,0.594-6.223c0.023-1.068,0.279-2.268,0.377-3.48
			c0.25-3.137-0.098-7.889,0.146-10.955c1.459-0.178,3.28,0.105,4.045-0.998c0.21-0.309,0.312-0.947,0.392-1.486
			c0.23-1.592,0.071-3.256,0.198-5.108c0.304-4.326,1.111-8.317,1.021-12.808c-0.03-0.529-0.092-1.093-0.14-1.482
			C190.64,17.515,190.625,17.516,190.617,17.516z M171.078,6.973c0.06-0.648,0.014-1.26,0.229-1.779
			c0.111-0.268,0.407-0.624,0.64-0.967c0.231-0.343,0.423-0.772,0.64-1.043c0.678-0.853,1.977-1.522,2.985-1.657
			c0.866-0.116,1.872-0.161,2.751-0.175c0.025,0.001,0.056-0.002,0.082,0c1.091,0.124,1.666,0.817,2.363,1.382
			c0.412,0.339,0.894,0.591,1.141,0.952c0.213,0.312,0.406,0.87,0.578,1.328c0.17,0.451,0.363,1.021,0.42,1.475
			c0.275,2.291-0.41,3.757-1.661,4.753c-0.278,0.22-0.795,0.411-1.211,0.677c-0.404,0.259-0.748,0.608-1.128,0.75
			c-0.883,0.331-1.912,0.302-2.994,0.326c-0.238-0.101-0.113-0.542-0.411-0.588c-0.692,0.017-1.397-0.478-1.946-0.13
			c-0.471-0.547-0.998-0.559-1.385-0.946c-0.418-0.424-0.858-1.441-1.072-2.138C170.833,8.334,171.003,7.755,171.078,6.973z
			 M189.441,22.188c-0.144,2.221-0.598,4.733-0.749,7.039c-0.04,0.596-0.101,1.035-0.148,1.405
			c-0.312,2.313,0.265,5.451-0.669,7.259c-0.634,0.27-1.929,0.318-2.754,0.174c0.05-0.445,0.191-6.414-0.057-6.807
			c-0.112-0.173-0.089-8.123-0.074-8.361c-0.021-0.854,0.068-1.725-0.742-1.692c-0.584,0.02-0.607,0.694-0.557,1.335
			c0.103,1.293-0.016,2.361-0.053,3.258c-0.139,3.385,0.333,6.59,0.171,10.43c-0.195,4.617,0.058,9.242-0.13,13.695
			c-0.07,1.637-0.489,3.172-0.369,5.186c0.112,1.885-0.086,4.229-1.102,5.195c-0.111,0.105-0.246,0.205-0.353,0.275
			c-0.319,0.217-0.67,0.309-0.952,0.264c-0.375-0.059-0.831-0.277-1.156-0.666c-0.578-0.689-1.036-1.844-1.369-2.57
			c0,0-1.166-4.283-0.606-7.334c0,0-0.133-3.432-0.113-3.699c0.05-0.395,0.263-6.266,0.106-6.514s-0.422-0.232-0.491-0.512
			c0.056-0.748-0.153-1.34-0.899-1.176c-0.394,0.086-0.492,0.455-0.49,0.898c0.002,0.441,0.102,0.955,0.104,1.324
			c0.001,0.301-0.01,0.613-0.024,0.934c-0.046,0.912-0.146,1.896-0.188,2.912c-0.016,0.385-0.017,0.773-0.014,1.162
			c0.005,0.391,0.013,0.783,0.02,1.176c0.013,0.781,0.019,1.561-0.046,2.322c-0.106,1.281-0.303,2.406-0.453,3.768
			c-0.094,0.842-0.181,1.713-0.302,2.574c-0.251,1.775-0.323,3.621-1.256,4.637c-0.45,0.488-1.045,1.045-1.45,1.047
			c-0.323,0.004-0.646,0.006-0.973,0.008c-0.6-0.873-1.312-1.631-1.318-2.648c0.078,0.275-0.33-2.01-0.335-3.002
			c-0.001-0.141-0.464-1.451,0.126-2.469c0.574-2.992,0.17-5.242,0.426-6.887c0.318-1.326-0.324-6.885-0.144-7.25
			c0,0-0.06-1.516-0.105-1.924c0.003,0.002-0.06-1.602-0.062-1.848c-0.011-0.654,0.154-1.143,0.274-2.293
			c0.001-0.001,0.156-1.112,0.217-3.337c-0.008-0.57,0.455-4.104,0.53-4.371c-0.014-0.526,0.149-1.819,0.143-2.152
			c-0.118-0.821,0.999-1.868-0.509-1.553c-0.121,0.025-0.217,0.082-0.289,0.18c-0.22,0.292-0.27,0.847-0.354,1.435
			c-0.246,1.732-0.36,1.229-0.469,2.719c-0.159,2.211-0.582,4.74-0.688,7.276c-0.07,1.636,0.071,3.482-0.251,4.558h-0.002
			c-1.729,0.664-3.461-0.205-3.612-1.855c0.217-0.098-0.187-0.84,0.122-1.951c0.002-0.004-0.604-3.28-0.486-8.002
			c0.047-0.201-0.062-6.132,0.979-8.668c0.098-0.237,1.006-1.781,0.793-2.008c0.803-1.001,1.798-1.97,3.142-2.174
			c0.772-0.117,1.663-0.199,2.429-0.097c0.85,0.112,1.395,0.603,2.115,0.868c0.972,0.356,2.342,0.696,3.811,0.48
			c1.03-0.151,1.68-0.832,2.585-1.135c0.624-0.208,1.099-0.131,1.78-0.239c0.27-0.042,0.503-0.213,0.728-0.23
			c0.532-0.037,1.286,0.096,1.866,0.203c1.18,0.226,1.596,0.521,2.196,1.165c0.489,0.521,0.885,0.8,1.31,1.317
			C189.574,16.873,189.621,19.434,189.441,22.188z"/>
	</g>
	<g>
		<path fill="#B1B3B6" d="M179.712,17.79c-3.006-1.392-7.908,2.124-5.48,5.349c0.047,0.063,0.127,0.057,0.165,0.014
			c0.021,0.109,0.146,0.213,0.282,0.151c0.423-0.188,1.112-0.353,1.412-0.742c0.26-0.343,0.152-0.912,0.248-1.296
			c0.168-0.655,0.598-1.499,1.442-1.461c0.562,0.027,1.02,0.594,1.12,1.096c0.229,1.157-0.869,1.934-1.807,2.255
			c-0.089,0.031-0.147,0.105-0.151,0.201c-0.026,0.711-0.055,1.421-0.08,2.135c-0.017,0.407-0.196,1.188-0.027,1.564
			c0.269,0.598,1.368,0.214,1.901,0.148c0.115,0.056,0.297,0,0.312-0.171c0.053-0.624,0.011-1.357,0.166-1.962
			c0.174-0.676,0.715-0.81,1.188-1.21c0.645-0.547,1.108-1.312,1.287-2.14C182.033,20.136,181.185,18.472,179.712,17.79z"/>
		<path fill="#B1B3B6" d="M178.985,28.832c-0.009-0.187-0.058-0.338-0.245-0.41c-0.223-0.092-0.568-0.019-0.805-0.011
			c-0.354,0.014-0.743-0.018-1.08,0.102c-0.096,0.034-0.1,0.165,0,0.196c0.01,0.005,0.021,0.007,0.031,0.009
			c-0.239,0.362-0.2,0.886-0.131,1.294c0.014,0.086,0.117,0.156,0.201,0.152c0.605-0.023,1.204,0.003,1.806,0.083
			c0.109,0.015,0.202-0.106,0.204-0.203C178.972,29.643,179.002,29.232,178.985,28.832z"/>
	</g>
</g>
<path fill="#034EA2" stroke="#FFFFFF" stroke-width="1.2336" stroke-miterlimit="10" d="M419.662,27.218
	c0.979-12.454-17.275-16.798-23.369-7.473c-8.854-8.415-26.383-5.978-27.051,8.561c-0.576,12.515,12.936,22.951,23.457,27.033
	c1.287,0.496,2.398-0.627,2.395-1.645C405.51,48.014,418.658,40.004,419.662,27.218z M395.582,49.75
	c-0.619-0.383-1.613-0.279-2.605,0.77c0,0-0.473,0.502-0.969,1.025c-6.875-3.146-13.072-8.242-17.184-14.543
	c-8.693-13.309,8.74-25.608,19.635-14.572c0.266,0.27,0.555,0.378,0.844,0.422c0.146,0.367,0.426,0.661,0.748,0.867
	c0.758-0.429,1.551-0.803,2.359-1.118c3.045-6.183,12.732-6.011,16.676-0.824c3.826,5.029-0.191,11.922-3.486,15.85
	C407.336,42.711,401.439,46.467,395.582,49.75z"/>
</svg>
