<?xml version="1.0" encoding="utf-8"?>
<!-- Generator: Adobe Illustrator 16.0.0, SVG Export Plug-In . SVG Version: 6.00 Build 0)  -->
<!DOCTYPE svg PUBLIC "-//W3C//DTD SVG 1.1//EN" "http://www.w3.org/Graphics/SVG/1.1/DTD/svg11.dtd">
<svg version="1.1" id="Layer_1" xmlns="http://www.w3.org/2000/svg" xmlns:xlink="http://www.w3.org/1999/xlink" x="0px" y="0px"
	 width="170.05px" height="170.05px" viewBox="0 0 170.05 170.05" enable-background="new 0 0 170.05 170.05" xml:space="preserve">
<path fill="#818385" d="M11.27,127.355c14.676,25.516,42.21,42.695,73.756,42.695c33.013,0,61.63-18.814,75.718-46.303"/>
<path fill="#818385" d="M160.744,46.306C146.656,18.815,118.039,0,85.025,0C53.479,0,25.945,17.183,11.27,42.696"/>
<path fill="#724478" d="M0,85.027C0,38.068,38.067,0,85.025,0c46.958,0,85.025,38.068,85.025,85.027"/>
<path fill="#724478" d="M170.05,85.027c0,46.958-38.066,85.023-85.025,85.023C38.067,170.05,0,131.986,0,85.027"/>
<path fill="#724478" d="M0,85.027C0,38.068,38.067,0,85.025,0c46.958,0,85.025,38.068,85.025,85.027"/>
<path fill="#724478" d="M170.05,85.027c0,46.958-38.066,85.023-85.025,85.023C38.067,170.05,0,131.986,0,85.027"/>
<path fill="#FFFFFF" d="M77.467,122.503V47.551h15.117v74.953H77.467z"/>
</svg>
