<?xml version="1.0" encoding="utf-8"?>
<!-- Generator: Adobe Illustrator 16.0.0, SVG Export Plug-In . SVG Version: 6.00 Build 0)  -->
<!DOCTYPE svg PUBLIC "-//W3C//DTD SVG 1.1//EN" "http://www.w3.org/Graphics/SVG/1.1/DTD/svg11.dtd">
<svg version="1.1" id="Layer_1" xmlns="http://www.w3.org/2000/svg" xmlns:xlink="http://www.w3.org/1999/xlink" x="0px" y="0px"
	 width="170.052px" height="170.05px" viewBox="0 0 170.052 170.05" enable-background="new 0 0 170.052 170.05"
	 xml:space="preserve">
<path fill="#818385" d="M9.38,123.88c14.111,27.418,42.688,46.17,75.645,46.17c32.958,0,61.534-18.75,75.646-46.168"/>
<path fill="#818385" d="M160.671,46.17C146.56,18.753,117.983,0,85.025,0C52.068,0,23.492,18.753,9.38,46.17"/>
<path fill="#EA8037" d="M0,85.027C0,38.068,38.067,0,85.025,0s85.026,38.068,85.026,85.027"/>
<path fill="#EA8037" d="M170.052,85.027c0,46.958-38.068,85.023-85.026,85.023S0,131.986,0,85.027"/>
<path fill="#FFFFFF" d="M77.467,122.503V47.551h15.117v74.953H77.467z"/>
<path fill="#EA8037" d="M0,85.027C0,38.068,38.067,0,85.025,0s85.026,38.068,85.026,85.027"/>
<path fill="#EA8037" d="M170.052,85.027c0,46.958-38.068,85.023-85.026,85.023S0,131.986,0,85.027"/>
</svg>
