<svg xmlns="http://www.w3.org/2000/svg" width="57.477" height="48.586" viewBox="0 0 57.477 48.586">
  <g fill="#20407D">
    <path d="M17.928 23.905c-.967-.975-2.575-1.232-3.674-.355-1.033.894-1.393 2.722-.34 3.745 1.005.98 2.693.812 3.738-.008 1.16-.912 1.347-2.303.276-3.382zM34.417 23.905c.968-.975 2.575-1.232 3.673-.355 1.034.894 1.394 2.722.342 3.745-1.006.98-2.695.812-3.74-.008-1.16-.912-1.346-2.303-.275-3.382zM23.71 23.448c-.64 1.215-.4 2.826.767 3.61 1.163.715 3.014.507 3.674-.805.63-1.254-.036-2.813-1.133-3.562-1.22-.83-2.602-.59-3.308.758z"/>
    <path d="M0 24.47c-.2 18.682 29.547 33.573 41.51 16.842 3.854 4.414 9.724 6.297 15.48 4.738.532-.145.69-.967.16-1.23-4.378-2.15-7.464-5.783-8.827-10.48-.055-.19-.166-.312-.3-.387 4.976-7.908 4.16-18.77-2.235-25.742-6.69-7.29-19.95-10.477-29.08-6.45-4.62 2.037-8.395 6.024-11.463 9.937C2.355 15.383.05 19.68 0 24.47zm1.475.477c-.133-6.158 3.77-11.387 7.793-15.66 4.433-4.707 9.4-7.794 16.05-7.784 6.12.012 12.787 1.894 17.575 5.808 7.876 6.44 9.27 18.578 3.89 27.01-.193.3.05.57.324.6 1.305 4.317 4 7.853 7.776 10.185-4.887.688-9.784-1.22-12.845-5.252-.312-.408-.87-.46-1.172 0-7.472 11.35-22.91 7.715-31.53-.057-4.193-3.784-7.734-9.023-7.86-14.85z"/>
  </g>
</svg>