<?xml version="1.0" encoding="utf-8"?>
<!-- Generator: Adobe Illustrator 16.0.0, SVG Export Plug-In . SVG Version: 6.00 Build 0)  -->
<!DOCTYPE svg PUBLIC "-//W3C//DTD SVG 1.1//EN" "http://www.w3.org/Graphics/SVG/1.1/DTD/svg11.dtd">
<svg version="1.1" id="Layer_1" xmlns="http://www.w3.org/2000/svg" xmlns:xlink="http://www.w3.org/1999/xlink" x="0px" y="0px"
	 width="170.05px" height="170.048px" viewBox="0 0 170.05 170.048" enable-background="new 0 0 170.05 170.048"
	 xml:space="preserve">
<path fill="#818385" d="M9.38,123.878c14.112,27.418,42.688,46.17,75.645,46.17c32.958,0,61.534-18.752,75.645-46.17"/>
<path fill="#818385" d="M160.67,46.168C146.559,18.751,117.982,0,85.025,0C52.068,0,23.492,18.751,9.38,46.168"/>
<path fill="#FFFFFF" d="M61.511,47.549h26.454c15.326,0,20.575,11.232,20.575,22.463c0,15.537-9.554,22.57-23.83,22.57h-8.083v29.92
	H61.511V47.549z M76.627,81.455h6.719c5.984,0,10.078-3.569,10.078-11.232c0-7.349-2.94-11.546-10.498-11.546h-6.298V81.455z"/>
<path fill="#275F9D" d="M0,85.025C0,38.066,38.067,0,85.025,0c46.957,0,85.024,38.066,85.024,85.025"/>
<path fill="#275F9D" d="M170.05,85.025c0,46.957-38.067,85.023-85.024,85.023C38.067,170.048,0,131.982,0,85.025"/>
<path fill="#FFFFFF" d="M61.511,47.549h26.454c15.326,0,20.575,11.232,20.575,22.463c0,15.537-9.554,22.57-23.83,22.57h-8.083v29.92
	H61.511V47.549z M76.627,81.455h6.719c5.984,0,10.078-3.569,10.078-11.232c0-7.349-2.94-11.546-10.498-11.546h-6.298V81.455z"/>
<path fill="#275F9D" d="M0,85.025C0,38.066,38.067,0,85.025,0c46.957,0,85.024,38.066,85.024,85.025"/>
<path fill="#275F9D" d="M170.05,85.025c0,46.957-38.067,85.023-85.024,85.023C38.067,170.048,0,131.982,0,85.025"/>
</svg>
