<?xml version="1.0" encoding="utf-8"?>
<!-- Generator: Adobe Illustrator 16.0.0, SVG Export Plug-In . SVG Version: 6.00 Build 0)  -->
<!DOCTYPE svg PUBLIC "-//W3C//DTD SVG 1.1//EN" "http://www.w3.org/Graphics/SVG/1.1/DTD/svg11.dtd">
<svg version="1.1" id="Layer_1" xmlns="http://www.w3.org/2000/svg" xmlns:xlink="http://www.w3.org/1999/xlink" x="0px" y="0px"
	 width="170.052px" height="170.05px" viewBox="0 0 170.052 170.05" enable-background="new 0 0 170.052 170.05"
	 xml:space="preserve">
<path fill="#818385" d="M9.38,123.882C23.491,151.3,52.068,170.05,85.026,170.05c31.545,0,59.08-17.18,73.754-42.695"/>
<path fill="#818385" d="M158.78,42.696C144.106,17.183,116.571,0,85.026,0C52.068,0,23.491,18.753,9.38,46.17"/>
<path fill="#147867" d="M0,85.027C0,38.068,38.067,0,85.026,0c46.957,0,85.025,38.068,85.025,85.027"/>
<path fill="#147867" d="M170.052,85.027c0,46.958-38.068,85.023-85.025,85.023C38.067,170.05,0,131.986,0,85.027"/>
<path fill="#147867" d="M0,85.027C0,38.068,38.067,0,85.026,0c46.957,0,85.025,38.068,85.025,85.027"/>
<path fill="#147867" d="M170.052,85.027c0,46.958-38.068,85.023-85.025,85.023C38.067,170.05,0,131.986,0,85.027"/>
<path fill="#FFFFFF" d="M59.62,47.551h27.924c12.389,0,19.947,6.508,19.947,19.316c0,9.973-3.99,16.69-12.493,18.475v0.209
	c10.288,1.365,11.862,7.033,12.073,22.884c0.104,7.873,0.525,11.969,3.359,13.438v0.631H94.054c-1.471-2.1-1.785-4.936-1.891-7.873
	l-0.418-14.381c-0.211-5.881-2.835-9.451-8.924-9.451h-8.083v31.705H59.62V47.551z M74.738,80.303h6.299
	c7.243,0,11.337-3.15,11.337-11.233c0-6.927-3.674-10.391-10.498-10.391h-7.139V80.303z"/>
</svg>
