<svg version="1.1" id="Layer_1" xmlns="http://www.w3.org/2000/svg" xmlns:xlink="http://www.w3.org/1999/xlink" x="0px" y="0px"
	 width="170.051px" height="170.05px" viewBox="0 0 170.051 170.05" enable-background="new 0 0 170.051 170.05"
	 xml:space="preserve">
<path fill="#818385" d="M160.671,46.17C146.561,18.753,117.983,0,85.025,0C38.067,0,0,38.068,0,85.027
	c0,46.958,38.067,85.023,85.025,85.023c32.958,0,61.535-18.752,75.646-46.17"/>
<path fill="#FFFFFF" d="M75.209,99.091v2.207c0,7.033,1.995,11.547,9.973,11.547c4.62,0,9.028-2.939,9.028-9.238
	c0-6.824-3.464-9.342-13.437-12.809c-13.438-4.619-19.631-10.181-19.631-22.673c0-14.592,8.923-22.046,23.2-22.046
	c13.437,0,23.199,5.775,23.199,20.156v2.099H93.057c0-7.033-2.416-11.127-8.188-11.127c-6.824,0-8.608,4.306-8.608,8.714
	c0,4.62,1.365,7.454,7.769,10.182l11.652,5.04c11.338,4.933,14.276,10.707,14.276,19.839c0,15.852-9.657,22.992-26.034,22.992
	c-17.111,0-23.83-7.98-23.83-21.838v-3.045H75.209z"/>
<path fill="#399946" d="M170.051,85.027c0,46.958-38.066,85.023-85.025,85.023S0,131.986,0,85.027C0,38.068,38.067,0,85.026,0
	S170.051,38.068,170.051,85.027"/>
<path fill="#399946" d="M170.051,85.027c0,46.958-38.066,85.023-85.025,85.023S0,131.986,0,85.027C0,38.068,38.067,0,85.026,0
	S170.051,38.068,170.051,85.027"/>
<path fill="#FFFFFF" d="M75.209,99.091v2.207c0,7.033,1.995,11.547,9.973,11.547c4.62,0,9.028-2.939,9.028-9.238
	c0-6.824-3.464-9.342-13.437-12.809c-13.437-4.619-19.63-10.181-19.63-22.673c0-14.592,8.923-22.046,23.2-22.046
	c13.437,0,23.199,5.775,23.199,20.156v2.099H93.057c0-7.033-2.416-11.127-8.188-11.127c-6.824,0-8.608,4.306-8.608,8.714
	c0,4.62,1.365,7.454,7.769,10.182l11.652,5.04c11.338,4.933,14.276,10.707,14.276,19.839c0,15.852-9.657,22.992-26.034,22.992
	c-17.111,0-23.83-7.98-23.83-21.838v-3.045H75.209z"/>
</svg>
