<?xml version="1.0" encoding="utf-8"?>
<!-- Generator: Adobe Illustrator 16.0.0, SVG Export Plug-In . SVG Version: 6.00 Build 0)  -->
<!DOCTYPE svg PUBLIC "-//W3C//DTD SVG 1.1//EN" "http://www.w3.org/Graphics/SVG/1.1/DTD/svg11.dtd">
<svg version="1.1" id="Layer_1" xmlns="http://www.w3.org/2000/svg" xmlns:xlink="http://www.w3.org/1999/xlink" x="0px" y="0px"
	 width="170.05px" height="170.05px" viewBox="0 0 170.05 170.05" enable-background="new 0 0 170.05 170.05" xml:space="preserve">
<path display="none" fill="#818385" d="M9.31,123.748c14.087,27.488,42.704,46.303,75.717,46.303
	c46.957,0,85.023-38.064,85.023-85.023C170.05,38.068,131.984,0,85.027,0C52.014,0,23.396,18.815,9.31,46.306"/>
<path fill="#F7BB22" d="M0,85.027C0,38.068,38.066,0,85.027,0c46.957,0,85.023,38.068,85.023,85.027
	c0,46.958-38.066,85.023-85.023,85.023C38.066,170.05,0,131.986,0,85.027"/>
<path fill="#F7BB22" d="M0,85.027C0,38.068,38.066,0,85.027,0c46.957,0,85.023,38.068,85.023,85.027
	c0,46.958-38.066,85.023-85.023,85.023C38.066,170.05,0,131.986,0,85.027"/>
<path fill="#FFFFFF" d="M108.96,47.551v12.387H92.583v62.565H77.468V59.938H61.091V47.551H108.96z"/>
</svg>
